<svg width="32" height="32" viewBox="0 0 32 32" fill="none" xmlns="http://www.w3.org/2000/svg">
<path fill-rule="evenodd" clip-rule="evenodd" d="M23.0374 18.5189C23.9371 18.5189 24.6922 19.2614 24.5546 20.1498C23.7476 25.3764 19.2732 29.2571 13.8767 29.2571C7.90619 29.2571 3.06689 24.4178 3.06689 18.4487C3.06689 13.5308 6.80303 8.94978 11.0094 7.91399C11.9132 7.69083 12.8395 8.32662 12.8395 9.25715C12.8395 15.5617 13.0515 17.1926 14.2486 18.0796C15.4458 18.9666 16.8536 18.5189 23.0374 18.5189Z" stroke="#130F26" stroke-width="1.5" stroke-linecap="round" stroke-linejoin="round"/>
<path fill-rule="evenodd" clip-rule="evenodd" d="M28.9238 13.2688C28.9954 9.21827 24.02 2.68915 17.9568 2.80143C17.4852 2.80985 17.1077 3.20283 17.0866 3.67301C16.9337 7.00353 17.14 11.3193 17.2551 13.2758C17.2901 13.8849 17.7687 14.3635 18.3765 14.3986C20.3877 14.5137 24.8607 14.6709 28.1435 14.1741C28.5898 14.1067 28.9168 13.7193 28.9238 13.2688Z" stroke="#130F26" stroke-width="1.5" stroke-linecap="round" stroke-linejoin="round"/>
</svg>
