<svg width="24" height="24" viewBox="0 0 24 24" fill="none" xmlns="http://www.w3.org/2000/svg">
<path d="M13.5459 12.7959L6.0459 20.2959C5.94125 20.4006 5.81702 20.4836 5.68029 20.5402C5.54356 20.5969 5.39702 20.626 5.24902 20.626C5.10103 20.626 4.95448 20.5969 4.81776 20.5402C4.68103 20.4836 4.55679 20.4006 4.45215 20.2959C4.3475 20.1913 4.26449 20.067 4.20785 19.9303C4.15122 19.7936 4.12207 19.647 4.12207 19.4991C4.12207 19.3511 4.15122 19.2045 4.20785 19.0678C4.26449 18.9311 4.3475 18.8068 4.45215 18.7022L11.1562 12L4.45402 5.29593C4.24268 5.08458 4.12395 4.79794 4.12395 4.49905C4.12395 4.20017 4.24268 3.91352 4.45402 3.70218C4.66537 3.49083 4.95201 3.3721 5.2509 3.3721C5.54978 3.3721 5.83643 3.49083 6.04777 3.70218L13.5478 11.2022C13.6525 11.3068 13.7356 11.4311 13.7922 11.5679C13.8488 11.7047 13.8779 11.8514 13.8777 11.9994C13.8775 12.1475 13.8481 12.2941 13.7912 12.4308C13.7343 12.5674 13.6509 12.6915 13.5459 12.7959ZM21.0459 11.2022L13.5459 3.70218C13.4412 3.59753 13.317 3.51452 13.1803 3.45789C13.0436 3.40125 12.897 3.3721 12.749 3.3721C12.601 3.3721 12.4545 3.40125 12.3178 3.45789C12.181 3.51452 12.0568 3.59753 11.9521 3.70218C11.8475 3.80682 11.7645 3.93106 11.7079 4.06779C11.6512 4.20451 11.6221 4.35106 11.6221 4.49905C11.6221 4.64705 11.6512 4.79359 11.7079 4.93032C11.7645 5.06705 11.8475 5.19128 11.9521 5.29593L18.6562 12L11.9512 18.7041C11.7399 18.9154 11.6211 19.202 11.6211 19.5009C11.6211 19.7998 11.7399 20.0865 11.9512 20.2978C12.1626 20.5091 12.4492 20.6279 12.7481 20.6279C13.047 20.6279 13.3336 20.5091 13.545 20.2978L21.045 12.7978C21.1499 12.6933 21.2332 12.5692 21.2901 12.4325C21.3469 12.2958 21.3762 12.1492 21.3763 12.0011C21.3764 11.8531 21.3473 11.7064 21.2906 11.5697C21.2339 11.4329 21.1507 11.3086 21.0459 11.2041V11.2022Z" fill="#303030" fill-opacity="0.4"/>
</svg>
