<svg width="16" height="17" viewBox="0 0 16 17" fill="none" xmlns="http://www.w3.org/2000/svg">
<path d="M12.75 4.5V11C12.75 11.1989 12.671 11.3897 12.5303 11.5303C12.3896 11.671 12.1989 11.75 12 11.75C11.8011 11.75 11.6103 11.671 11.4696 11.5303C11.329 11.3897 11.25 11.1989 11.25 11V6.3125L4.5306 13.0306C4.3897 13.1715 4.19861 13.2507 3.99935 13.2507C3.80009 13.2507 3.60899 13.1715 3.4681 13.0306C3.3272 12.8897 3.24805 12.6986 3.24805 12.4994C3.24805 12.3001 3.3272 12.109 3.4681 11.9681L10.1875 5.25H5.49997C5.30106 5.25 5.11029 5.17098 4.96964 5.03033C4.82899 4.88968 4.74997 4.69891 4.74997 4.5C4.74997 4.30109 4.82899 4.11032 4.96964 3.96967C5.11029 3.82902 5.30106 3.75 5.49997 3.75H12C12.1989 3.75 12.3896 3.82902 12.5303 3.96967C12.671 4.11032 12.75 4.30109 12.75 4.5Z" fill="#303030" fill-opacity="0.4"/>
</svg>
