<svg width="44" height="44" viewBox="0 0 44 44" fill="none" xmlns="http://www.w3.org/2000/svg">
<rect width="44" height="44" rx="22" fill="#9747FF" fill-opacity="0.05"/>
<path d="M22 11.875C19.9975 11.875 18.0399 12.4688 16.3749 13.5814C14.7098 14.6939 13.4121 16.2752 12.6457 18.1253C11.8794 19.9754 11.6789 22.0112 12.0696 23.9753C12.4602 25.9393 13.4245 27.7435 14.8405 29.1595C16.2566 30.5755 18.0607 31.5398 20.0247 31.9305C21.9888 32.3211 24.0246 32.1206 25.8747 31.3543C27.7248 30.5879 29.3061 29.2902 30.4186 27.6251C31.5312 25.9601 32.125 24.0025 32.125 22C32.122 19.3156 31.0543 16.742 29.1562 14.8438C27.258 12.9457 24.6844 11.878 22 11.875ZM22 29.875C20.4425 29.875 18.9199 29.4131 17.6249 28.5478C16.3299 27.6825 15.3205 26.4526 14.7245 25.0136C14.1284 23.5747 13.9725 21.9913 14.2763 20.4637C14.5802 18.9361 15.3302 17.5329 16.4315 16.4315C17.5329 15.3302 18.9361 14.5802 20.4637 14.2763C21.9913 13.9725 23.5747 14.1284 25.0136 14.7244C26.4526 15.3205 27.6825 16.3298 28.5478 17.6249C29.4131 18.9199 29.875 20.4425 29.875 22C29.8728 24.0879 29.0424 26.0896 27.566 27.566C26.0896 29.0424 24.0879 29.8728 22 29.875ZM25.7959 21.9541C25.9008 22.0586 25.984 22.1828 26.0408 22.3195C26.0976 22.4563 26.1268 22.6029 26.1268 22.7509C26.1268 22.899 26.0976 23.0456 26.0408 23.1824C25.984 23.3191 25.9008 23.4433 25.7959 23.5478L22.7959 26.5478C22.6914 26.6527 22.5672 26.7359 22.4305 26.7927C22.2937 26.8495 22.1471 26.8787 21.9991 26.8787C21.851 26.8787 21.7044 26.8495 21.5676 26.7927C21.4309 26.7359 21.3067 26.6527 21.2022 26.5478L18.2022 23.5478C18.0975 23.4432 18.0145 23.3189 17.9579 23.1822C17.9013 23.0455 17.8721 22.8989 17.8721 22.7509C17.8721 22.6029 17.9013 22.4564 17.9579 22.3197C18.0145 22.1829 18.0975 22.0587 18.2022 21.9541C18.3068 21.8494 18.4311 21.7664 18.5678 21.7098C18.7045 21.6531 18.8511 21.624 18.9991 21.624C19.1471 21.624 19.2936 21.6531 19.4303 21.7098C19.5671 21.7664 19.6913 21.8494 19.7959 21.9541L20.875 23.0312V18.25C20.875 17.9516 20.9935 17.6655 21.2045 17.4545C21.4155 17.2435 21.7016 17.125 22 17.125C22.2984 17.125 22.5845 17.2435 22.7955 17.4545C23.0065 17.6655 23.125 17.9516 23.125 18.25V23.0312L24.2041 21.9513C24.3087 21.8468 24.433 21.7641 24.5696 21.7077C24.7063 21.6513 24.8527 21.6224 25.0006 21.6227C25.1484 21.623 25.2948 21.6524 25.4312 21.7092C25.5677 21.7661 25.6916 21.8493 25.7959 21.9541Z" fill="#38063C"/>
</svg>
