<svg width="30" height="31" viewBox="0 0 30 31" fill="none" xmlns="http://www.w3.org/2000/svg">
<rect y="0.5" width="30" height="30" rx="15" fill="#C70000" fill-opacity="0.1"/>
<rect x="0.5" y="1" width="29" height="29" rx="14.5" stroke="#FF264D" stroke-opacity="0.05"/>
<path d="M20.0306 19.4694C20.1715 19.6103 20.2506 19.8014 20.2506 20.0006C20.2506 20.1999 20.1715 20.391 20.0306 20.5319C19.8897 20.6728 19.6986 20.7519 19.4993 20.7519C19.3001 20.7519 19.109 20.6728 18.9681 20.5319L15 16.5625L11.0306 20.5306C10.8897 20.6715 10.6986 20.7507 10.4993 20.7507C10.3001 20.7507 10.109 20.6715 9.9681 20.5306C9.8272 20.3897 9.74805 20.1986 9.74805 19.9994C9.74805 19.8001 9.8272 19.609 9.9681 19.4681L13.9375 15.5L9.96935 11.5306C9.82845 11.3897 9.7493 11.1986 9.7493 10.9994C9.7493 10.8001 9.82845 10.609 9.96935 10.4681C10.1102 10.3272 10.3013 10.2481 10.5006 10.2481C10.6999 10.2481 10.891 10.3272 11.0318 10.4681L15 14.4375L18.9693 10.4675C19.1102 10.3266 19.3013 10.2475 19.5006 10.2475C19.6999 10.2475 19.891 10.3266 20.0318 10.4675C20.1727 10.6084 20.2519 10.7995 20.2519 10.9988C20.2519 11.198 20.1727 11.3891 20.0318 11.53L16.0625 15.5L20.0306 19.4694Z" fill="#FF264D"/>
</svg>
