<svg width="44" height="44" viewBox="0 0 44 44" fill="none" xmlns="http://www.w3.org/2000/svg">
<rect width="44" height="44" rx="22" fill="#FF7C24" fill-opacity="0.05"/>
<path d="M22 11.875C19.9975 11.875 18.0399 12.4688 16.3749 13.5814C14.7098 14.6939 13.4121 16.2752 12.6457 18.1253C11.8794 19.9754 11.6789 22.0112 12.0696 23.9753C12.4602 25.9393 13.4245 27.7435 14.8405 29.1595C16.2566 30.5755 18.0607 31.5398 20.0247 31.9305C21.9888 32.3211 24.0246 32.1206 25.8747 31.3543C27.7248 30.5879 29.3061 29.2902 30.4186 27.6251C31.5312 25.9601 32.125 24.0025 32.125 22C32.122 19.3156 31.0543 16.742 29.1562 14.8438C27.258 12.9457 24.6844 11.878 22 11.875ZM22 29.875C20.4425 29.875 18.9199 29.4131 17.6249 28.5478C16.3299 27.6825 15.3205 26.4526 14.7245 25.0136C14.1284 23.5747 13.9725 21.9913 14.2763 20.4637C14.5802 18.9361 15.3302 17.5329 16.4315 16.4315C17.5329 15.3302 18.9361 14.5802 20.4637 14.2763C21.9913 13.9725 23.5747 14.1284 25.0136 14.7244C26.4526 15.3205 27.6825 16.3298 28.5478 17.6249C29.4131 18.9199 29.875 20.4425 29.875 22C29.8728 24.0879 29.0424 26.0896 27.566 27.566C26.0896 29.0424 24.0879 29.8728 22 29.875ZM26.125 23.875C26.125 24.6706 25.8089 25.4337 25.2463 25.9963C24.6837 26.5589 23.9207 26.875 23.125 26.875V27.25C23.125 27.5484 23.0065 27.8345 22.7955 28.0455C22.5845 28.2565 22.2984 28.375 22 28.375C21.7016 28.375 21.4155 28.2565 21.2045 28.0455C20.9935 27.8345 20.875 27.5484 20.875 27.25V26.875H19.75C19.4516 26.875 19.1655 26.7565 18.9545 26.5455C18.7435 26.3345 18.625 26.0484 18.625 25.75C18.625 25.4516 18.7435 25.1655 18.9545 24.9545C19.1655 24.7435 19.4516 24.625 19.75 24.625H23.125C23.3239 24.625 23.5147 24.546 23.6553 24.4053C23.796 24.2647 23.875 24.0739 23.875 23.875C23.875 23.6761 23.796 23.4853 23.6553 23.3447C23.5147 23.204 23.3239 23.125 23.125 23.125H20.875C20.0794 23.125 19.3163 22.8089 18.7537 22.2463C18.1911 21.6837 17.875 20.9206 17.875 20.125C17.875 19.3294 18.1911 18.5663 18.7537 18.0037C19.3163 17.4411 20.0794 17.125 20.875 17.125V16.75C20.875 16.4516 20.9935 16.1655 21.2045 15.9545C21.4155 15.7435 21.7016 15.625 22 15.625C22.2984 15.625 22.5845 15.7435 22.7955 15.9545C23.0065 16.1655 23.125 16.4516 23.125 16.75V17.125H24.25C24.5484 17.125 24.8345 17.2435 25.0455 17.4545C25.2565 17.6655 25.375 17.9516 25.375 18.25C25.375 18.5484 25.2565 18.8345 25.0455 19.0455C24.8345 19.2565 24.5484 19.375 24.25 19.375H20.875C20.6761 19.375 20.4853 19.454 20.3447 19.5947C20.204 19.7353 20.125 19.9261 20.125 20.125C20.125 20.3239 20.204 20.5147 20.3447 20.6553C20.4853 20.796 20.6761 20.875 20.875 20.875H23.125C23.9207 20.875 24.6837 21.1911 25.2463 21.7537C25.8089 22.3163 26.125 23.0794 26.125 23.875Z" fill="#FF7C24"/>
</svg>
