<svg width="32" height="32" viewBox="0 0 32 32" fill="none" xmlns="http://www.w3.org/2000/svg">
<path fill-rule="evenodd" clip-rule="evenodd" d="M4 8.66667C4 5.16638 4.03748 4 8.66667 4C13.2959 4 13.3333 5.16638 13.3333 8.66667C13.3333 12.167 13.3481 13.3333 8.66667 13.3333C3.98524 13.3333 4 12.167 4 8.66667Z" stroke="#303030" stroke-width="2" stroke-linecap="round" stroke-linejoin="round"/>
<path fill-rule="evenodd" clip-rule="evenodd" d="M18.6665 8.66667C18.6665 5.16638 18.704 4 23.3332 4C27.9624 4 27.9998 5.16638 27.9998 8.66667C27.9998 12.167 28.0146 13.3333 23.3332 13.3333C18.6517 13.3333 18.6665 12.167 18.6665 8.66667Z" stroke="#303030" stroke-width="2" stroke-linecap="round" stroke-linejoin="round"/>
<path fill-rule="evenodd" clip-rule="evenodd" d="M4 23.3333C4 19.833 4.03748 18.6666 8.66667 18.6666C13.2959 18.6666 13.3333 19.833 13.3333 23.3333C13.3333 26.8336 13.3481 28 8.66667 28C3.98524 28 4 26.8336 4 23.3333Z" stroke="#303030" stroke-width="2" stroke-linecap="round" stroke-linejoin="round"/>
<path fill-rule="evenodd" clip-rule="evenodd" d="M18.6665 23.3333C18.6665 19.833 18.704 18.6666 23.3332 18.6666C27.9624 18.6666 27.9998 19.833 27.9998 23.3333C27.9998 26.8336 28.0146 28 23.3332 28C18.6517 28 18.6665 26.8336 18.6665 23.3333Z" stroke="#303030" stroke-width="2" stroke-linecap="round" stroke-linejoin="round"/>
</svg>
