<svg width="58" height="58" viewBox="0 0 58 58" fill="none" xmlns="http://www.w3.org/2000/svg">
<rect width="58" height="58" rx="24" fill="#FF7C24" fill-opacity="0.05"/>
<path d="M29 12.9688C25.8293 12.9688 22.7298 13.909 20.0935 15.6705C17.4572 17.432 15.4024 19.9358 14.1891 22.8651C12.9757 25.7944 12.6582 29.0178 13.2768 32.1275C13.8954 35.2373 15.4222 38.0938 17.6642 40.3358C19.9062 42.5778 22.7627 44.1046 25.8725 44.7232C28.9822 45.3418 32.2056 45.0243 35.1349 43.8109C38.0642 42.5976 40.568 40.5428 42.3295 37.9065C44.091 35.2702 45.0313 32.1707 45.0313 29C45.0265 24.7497 43.336 20.6748 40.3306 17.6694C37.3252 14.664 33.2503 12.9735 29 12.9688ZM29 41.4688C26.5339 41.4688 24.1232 40.7375 22.0727 39.3674C20.0223 37.9973 18.4241 36.0499 17.4804 33.7716C16.5367 31.4932 16.2897 28.9862 16.7708 26.5675C17.252 24.1488 18.4395 21.927 20.1833 20.1833C21.9271 18.4395 24.1488 17.2519 26.5675 16.7708C28.9862 16.2897 31.4932 16.5366 33.7716 17.4804C36.05 18.4241 37.9973 20.0223 39.3674 22.0727C40.7375 24.1232 41.4688 26.5339 41.4688 29C41.4652 32.3058 40.1504 35.4753 37.8128 37.8128C35.4753 40.1504 32.3058 41.4652 29 41.4688ZM35.5313 31.9688C35.5313 33.2285 35.0308 34.4367 34.14 35.3275C33.2492 36.2183 32.041 36.7188 30.7813 36.7188V37.3125C30.7813 37.7849 30.5936 38.238 30.2595 38.572C29.9255 38.9061 29.4724 39.0938 29 39.0938C28.5276 39.0938 28.0745 38.9061 27.7405 38.572C27.4064 38.238 27.2188 37.7849 27.2188 37.3125V36.7188H25.4375C24.9651 36.7188 24.512 36.5311 24.178 36.197C23.8439 35.863 23.6563 35.4099 23.6563 34.9375C23.6563 34.4651 23.8439 34.012 24.178 33.678C24.512 33.3439 24.9651 33.1562 25.4375 33.1562H30.7813C31.0962 33.1562 31.3982 33.0311 31.6209 32.8084C31.8436 32.5857 31.9688 32.2837 31.9688 31.9688C31.9688 31.6538 31.8436 31.3518 31.6209 31.1291C31.3982 30.9064 31.0962 30.7812 30.7813 30.7812H27.2188C25.959 30.7812 24.7508 30.2808 23.86 29.39C22.9692 28.4992 22.4688 27.291 22.4688 26.0312C22.4688 24.7715 22.9692 23.5633 23.86 22.6725C24.7508 21.7817 25.959 21.2812 27.2188 21.2812V20.6875C27.2188 20.2151 27.4064 19.762 27.7405 19.428C28.0745 19.0939 28.5276 18.9062 29 18.9062C29.4724 18.9062 29.9255 19.0939 30.2595 19.428C30.5936 19.762 30.7813 20.2151 30.7813 20.6875V21.2812H32.5625C33.0349 21.2812 33.488 21.4689 33.822 21.803C34.1561 22.137 34.3438 22.5901 34.3438 23.0625C34.3438 23.5349 34.1561 23.988 33.822 24.322C33.488 24.6561 33.0349 24.8438 32.5625 24.8438H27.2188C26.9038 24.8438 26.6018 24.9689 26.3791 25.1916C26.1564 25.4143 26.0313 25.7163 26.0313 26.0312C26.0313 26.3462 26.1564 26.6482 26.3791 26.8709C26.6018 27.0936 26.9038 27.2188 27.2188 27.2188H30.7813C32.041 27.2188 33.2492 27.7192 34.14 28.61C35.0308 29.5008 35.5313 30.709 35.5313 31.9688Z" fill="#FF7C24"/>
</svg>
