<svg width="18" height="22" viewBox="0 0 18 22" fill="none" xmlns="http://www.w3.org/2000/svg">
<path d="M17.2959 6.455L12.0459 1.205C11.9415 1.10039 11.8174 1.0174 11.6808 0.96078C11.5442 0.904156 11.3978 0.875007 11.25 0.875H2.25C1.75272 0.875 1.27581 1.07254 0.924175 1.42417C0.572544 1.77581 0.375 2.25272 0.375 2.75V19.25C0.375 19.7473 0.572544 20.2242 0.924175 20.5758C1.27581 20.9275 1.75272 21.125 2.25 21.125H15.75C16.2473 21.125 16.7242 20.9275 17.0758 20.5758C17.4275 20.2242 17.625 19.7473 17.625 19.25V7.25C17.625 6.95187 17.5066 6.66593 17.2959 6.455ZM12 4.34375L14.1562 6.5H12V4.34375ZM2.625 18.875V3.125H9.75V7.625C9.75 7.92337 9.86853 8.20952 10.0795 8.4205C10.2905 8.63147 10.5766 8.75 10.875 8.75H15.375V18.875H2.625ZM13.125 11.375C13.125 11.6734 13.0065 11.9595 12.7955 12.1705C12.5845 12.3815 12.2984 12.5 12 12.5H6C5.70163 12.5 5.41548 12.3815 5.2045 12.1705C4.99353 11.9595 4.875 11.6734 4.875 11.375C4.875 11.0766 4.99353 10.7905 5.2045 10.5795C5.41548 10.3685 5.70163 10.25 6 10.25H12C12.2984 10.25 12.5845 10.3685 12.7955 10.5795C13.0065 10.7905 13.125 11.0766 13.125 11.375ZM13.125 15.125C13.125 15.4234 13.0065 15.7095 12.7955 15.9205C12.5845 16.1315 12.2984 16.25 12 16.25H6C5.70163 16.25 5.41548 16.1315 5.2045 15.9205C4.99353 15.7095 4.875 15.4234 4.875 15.125C4.875 14.8266 4.99353 14.5405 5.2045 14.3295C5.41548 14.1185 5.70163 14 6 14H12C12.2984 14 12.5845 14.1185 12.7955 14.3295C13.0065 14.5405 13.125 14.8266 13.125 15.125Z" fill="#303030" fill-opacity="0.4"/>
</svg>
