<svg width="44" height="44" viewBox="0 0 44 44" fill="none" xmlns="http://www.w3.org/2000/svg">
<rect width="44" height="44" rx="22" fill="#303030" fill-opacity="0.05"/>
<path d="M14.5 23.125H13C12.7016 23.125 12.4155 23.2435 12.2045 23.4545C11.9935 23.6655 11.875 23.9516 11.875 24.25V29.5C11.875 29.7984 11.9935 30.0845 12.2045 30.2955C12.4155 30.5065 12.7016 30.625 13 30.625H14.5C15.4946 30.625 16.4484 30.2299 17.1517 29.5266C17.8549 28.8234 18.25 27.8696 18.25 26.875C18.25 25.8804 17.8549 24.9266 17.1517 24.2233C16.4484 23.5201 15.4946 23.125 14.5 23.125ZM14.5 28.375H14.125V25.375H14.5C14.8978 25.375 15.2794 25.533 15.5607 25.8143C15.842 26.0956 16 26.4772 16 26.875C16 27.2728 15.842 27.6544 15.5607 27.9357C15.2794 28.217 14.8978 28.375 14.5 28.375ZM31.4031 28.0187C31.5103 28.121 31.5963 28.2433 31.656 28.3789C31.7158 28.5144 31.7482 28.6603 31.7515 28.8084C31.7547 28.9565 31.7286 29.1038 31.6748 29.2417C31.621 29.3797 31.5404 29.5057 31.4378 29.6125C31.1416 29.9299 30.7836 30.1834 30.3859 30.3575C29.9882 30.5316 29.5591 30.6226 29.125 30.625C27.2641 30.625 25.75 28.9431 25.75 26.875C25.75 24.8069 27.2641 23.125 29.125 23.125C29.5593 23.1277 29.9886 23.2192 30.3863 23.3938C30.784 23.5684 31.1418 23.8224 31.4378 24.1403C31.6442 24.3559 31.7565 24.6446 31.75 24.943C31.7435 25.2413 31.6187 25.5249 31.4031 25.7313C31.1876 25.9376 30.8988 26.0499 30.6005 26.0434C30.3021 26.0369 30.0186 25.9121 29.8122 25.6966C29.7254 25.5992 29.6197 25.5205 29.5016 25.4652C29.3835 25.41 29.2554 25.3793 29.125 25.375C28.5156 25.375 28 26.0622 28 26.875C28 27.6878 28.5156 28.375 29.125 28.375C29.2554 28.3707 29.3835 28.34 29.5016 28.2848C29.6197 28.2295 29.7254 28.1508 29.8122 28.0534C29.9144 27.9467 30.0366 27.8611 30.1718 27.8016C30.3071 27.742 30.4527 27.7097 30.6005 27.7065C30.7482 27.7033 30.8951 27.7292 31.0329 27.7828C31.1706 27.8364 31.2964 27.9165 31.4031 28.0187ZM22 23.125C20.1391 23.125 18.625 24.8069 18.625 26.875C18.625 28.9431 20.1391 30.625 22 30.625C23.8609 30.625 25.375 28.9431 25.375 26.875C25.375 24.8069 23.8609 23.125 22 23.125ZM22 28.375C21.3906 28.375 20.875 27.6878 20.875 26.875C20.875 26.0622 21.3906 25.375 22 25.375C22.6094 25.375 23.125 26.0622 23.125 26.875C23.125 27.6878 22.6094 28.375 22 28.375ZM14.5 21.25C14.7984 21.25 15.0845 21.1315 15.2955 20.9205C15.5065 20.7095 15.625 20.4234 15.625 20.125V14.125H22.75V18.625C22.75 18.9234 22.8685 19.2095 23.0795 19.4205C23.2905 19.6315 23.5766 19.75 23.875 19.75H28.375V20.125C28.375 20.4234 28.4935 20.7095 28.7045 20.9205C28.9155 21.1315 29.2016 21.25 29.5 21.25C29.7984 21.25 30.0845 21.1315 30.2955 20.9205C30.5065 20.7095 30.625 20.4234 30.625 20.125V18.25C30.625 17.9519 30.5066 17.6659 30.2959 17.455L25.0459 12.205C24.9415 12.1004 24.8174 12.0174 24.6808 11.9608C24.5442 11.9042 24.3978 11.875 24.25 11.875H15.25C14.7527 11.875 14.2758 12.0725 13.9242 12.4242C13.5725 12.7758 13.375 13.2527 13.375 13.75V20.125C13.375 20.4234 13.4935 20.7095 13.7045 20.9205C13.9155 21.1315 14.2016 21.25 14.5 21.25ZM25 15.3438L27.1562 17.5H25V15.3438Z" fill="#303030" fill-opacity="0.4"/>
</svg>
