<svg width="17" height="16" viewBox="0 0 17 16" fill="none" xmlns="http://www.w3.org/2000/svg">
<path d="M8.667 1.25C7.33197 1.25 6.02693 1.64588 4.9169 2.38758C3.80686 3.12928 2.9417 4.18349 2.43081 5.41689C1.91992 6.65029 1.78624 8.00749 2.04669 9.31686C2.30714 10.6262 2.95002 11.829 3.89402 12.773C4.83803 13.717 6.04076 14.3598 7.35014 14.6203C8.65951 14.8808 10.0167 14.7471 11.2501 14.2362C12.4835 13.7253 13.5377 12.8601 14.2794 11.7501C15.0211 10.6401 15.417 9.33502 15.417 8C15.415 6.2104 14.7032 4.49466 13.4378 3.22922C12.1723 1.96378 10.4566 1.25199 8.667 1.25ZM8.667 13.25C7.62864 13.25 6.61361 12.9421 5.75025 12.3652C4.88689 11.7883 4.21399 10.9684 3.81663 10.0091C3.41927 9.04978 3.3153 7.99418 3.51787 6.97578C3.72044 5.95738 4.22046 5.02191 4.95468 4.28769C5.68891 3.55346 6.62437 3.05345 7.64277 2.85088C8.66117 2.6483 9.71677 2.75227 10.6761 3.14963C11.6354 3.54699 12.4553 4.2199 13.0322 5.08326C13.6091 5.94661 13.917 6.96165 13.917 8C13.9155 9.39193 13.3619 10.7264 12.3777 11.7107C11.3934 12.6949 10.0589 13.2485 8.667 13.25ZM11.417 6V9C11.417 9.19891 11.338 9.38968 11.1973 9.53033C11.0567 9.67098 10.8659 9.75 10.667 9.75C10.4681 9.75 10.2773 9.67098 10.1367 9.53033C9.99601 9.38968 9.917 9.19891 9.917 9V7.8125L7.19762 10.5325C7.05672 10.6734 6.86563 10.7526 6.66637 10.7526C6.46711 10.7526 6.27602 10.6734 6.13512 10.5325C5.99422 10.3916 5.91507 10.2005 5.91507 10.0013C5.91507 9.80199 5.99422 9.6109 6.13512 9.47L8.8545 6.75H7.667C7.46808 6.75 7.27732 6.67098 7.13666 6.53033C6.99601 6.38968 6.917 6.19891 6.917 6C6.917 5.80109 6.99601 5.61032 7.13666 5.46967C7.27732 5.32902 7.46808 5.25 7.667 5.25H10.667C10.8659 5.25 11.0567 5.32902 11.1973 5.46967C11.338 5.61032 11.417 5.80109 11.417 6Z" fill="#0066FF"/>
</svg>
