<svg width="19" height="19" viewBox="0 0 19 19" fill="none" xmlns="http://www.w3.org/2000/svg">
<path d="M18.875 11.75V17C18.875 17.4973 18.6775 17.9742 18.3258 18.3258C17.9742 18.6775 17.4973 18.875 17 18.875H2C1.50272 18.875 1.02581 18.6775 0.674175 18.3258C0.322544 17.9742 0.125 17.4973 0.125 17V11.75C0.125 11.4516 0.243526 11.1655 0.454505 10.9545C0.665483 10.7435 0.951631 10.625 1.25 10.625C1.54837 10.625 1.83452 10.7435 2.0455 10.9545C2.25647 11.1655 2.375 11.4516 2.375 11.75V16.625H16.625V11.75C16.625 11.4516 16.7435 11.1655 16.9545 10.9545C17.1655 10.7435 17.4516 10.625 17.75 10.625C18.0484 10.625 18.3345 10.7435 18.5455 10.9545C18.7565 11.1655 18.875 11.4516 18.875 11.75ZM8.70406 12.5459C8.80858 12.6508 8.93277 12.734 9.06952 12.7908C9.20626 12.8476 9.35287 12.8768 9.50094 12.8768C9.649 12.8768 9.79561 12.8476 9.93236 12.7908C10.0691 12.734 10.1933 12.6508 10.2978 12.5459L14.0478 8.79594C14.2592 8.58459 14.3779 8.29795 14.3779 7.99906C14.3779 7.70018 14.2592 7.41353 14.0478 7.20219C13.8365 6.99084 13.5498 6.87211 13.2509 6.87211C12.9521 6.87211 12.6654 6.99084 12.4541 7.20219L10.625 9.03125V1.25C10.625 0.951631 10.5065 0.665483 10.2955 0.454505C10.0845 0.243526 9.79837 0.125 9.5 0.125C9.20163 0.125 8.91548 0.243526 8.7045 0.454505C8.49353 0.665483 8.375 0.951631 8.375 1.25V9.03125L6.54594 7.20406C6.33459 6.99272 6.04795 6.87399 5.74906 6.87399C5.45018 6.87399 5.16353 6.99272 4.95219 7.20406C4.74084 7.41541 4.62211 7.70205 4.62211 8.00094C4.62211 8.29982 4.74084 8.58647 4.95219 8.79781L8.70406 12.5459Z" fill="#0066FF"/>
</svg>
