<svg width="24" height="25" viewBox="0 0 24 25" fill="none" xmlns="http://www.w3.org/2000/svg">
<path d="M4.5 13.625H3C2.70163 13.625 2.41548 13.7435 2.2045 13.9545C1.99353 14.1655 1.875 14.4516 1.875 14.75V20C1.875 20.2984 1.99353 20.5845 2.2045 20.7955C2.41548 21.0065 2.70163 21.125 3 21.125H4.5C5.49456 21.125 6.44839 20.7299 7.15165 20.0266C7.85491 19.3234 8.25 18.3696 8.25 17.375C8.25 16.3804 7.85491 15.4266 7.15165 14.7233C6.44839 14.0201 5.49456 13.625 4.5 13.625ZM4.5 18.875H4.125V15.875H4.5C4.89782 15.875 5.27936 16.033 5.56066 16.3143C5.84196 16.5956 6 16.9772 6 17.375C6 17.7728 5.84196 18.1544 5.56066 18.4357C5.27936 18.717 4.89782 18.875 4.5 18.875ZM21.4031 18.5187C21.5103 18.621 21.5963 18.7433 21.656 18.8789C21.7158 19.0144 21.7482 19.1603 21.7515 19.3084C21.7547 19.4565 21.7286 19.6038 21.6748 19.7417C21.621 19.8797 21.5404 20.0057 21.4378 20.1125C21.1416 20.4299 20.7836 20.6834 20.3859 20.8575C19.9882 21.0316 19.5591 21.1226 19.125 21.125C17.2641 21.125 15.75 19.4431 15.75 17.375C15.75 15.3069 17.2641 13.625 19.125 13.625C19.5593 13.6277 19.9886 13.7192 20.3863 13.8938C20.784 14.0684 21.1418 14.3224 21.4378 14.6403C21.6442 14.8559 21.7565 15.1446 21.75 15.443C21.7435 15.7413 21.6187 16.0249 21.4031 16.2313C21.1876 16.4376 20.8988 16.5499 20.6005 16.5434C20.3021 16.5369 20.0186 16.4121 19.8122 16.1966C19.7254 16.0992 19.6197 16.0205 19.5016 15.9652C19.3835 15.91 19.2554 15.8793 19.125 15.875C18.5156 15.875 18 16.5622 18 17.375C18 18.1878 18.5156 18.875 19.125 18.875C19.2554 18.8707 19.3835 18.84 19.5016 18.7848C19.6197 18.7295 19.7254 18.6508 19.8122 18.5534C19.9144 18.4467 20.0366 18.3611 20.1718 18.3016C20.3071 18.242 20.4527 18.2097 20.6005 18.2065C20.7482 18.2033 20.8951 18.2292 21.0329 18.2828C21.1706 18.3364 21.2964 18.4165 21.4031 18.5187ZM12 13.625C10.1391 13.625 8.625 15.3069 8.625 17.375C8.625 19.4431 10.1391 21.125 12 21.125C13.8609 21.125 15.375 19.4431 15.375 17.375C15.375 15.3069 13.8609 13.625 12 13.625ZM12 18.875C11.3906 18.875 10.875 18.1878 10.875 17.375C10.875 16.5622 11.3906 15.875 12 15.875C12.6094 15.875 13.125 16.5622 13.125 17.375C13.125 18.1878 12.6094 18.875 12 18.875ZM4.5 11.75C4.79837 11.75 5.08452 11.6315 5.2955 11.4205C5.50647 11.2095 5.625 10.9234 5.625 10.625V4.625H12.75V9.125C12.75 9.42337 12.8685 9.70952 13.0795 9.9205C13.2905 10.1315 13.5766 10.25 13.875 10.25H18.375V10.625C18.375 10.9234 18.4935 11.2095 18.7045 11.4205C18.9155 11.6315 19.2016 11.75 19.5 11.75C19.7984 11.75 20.0845 11.6315 20.2955 11.4205C20.5065 11.2095 20.625 10.9234 20.625 10.625V8.75C20.625 8.45187 20.5066 8.16593 20.2959 7.955L15.0459 2.705C14.9415 2.60039 14.8174 2.5174 14.6808 2.46078C14.5442 2.40416 14.3978 2.37501 14.25 2.375H5.25C4.75272 2.375 4.27581 2.57254 3.92417 2.92417C3.57254 3.27581 3.375 3.75272 3.375 4.25V10.625C3.375 10.9234 3.49353 11.2095 3.7045 11.4205C3.91548 11.6315 4.20163 11.75 4.5 11.75ZM15 5.84375L17.1562 8H15V5.84375Z" fill="#FF7C24"/>
</svg>
