<svg width="44" height="44" viewBox="0 0 44 44" fill="none" xmlns="http://www.w3.org/2000/svg">
<rect width="44" height="44" rx="22" fill="#303030" fill-opacity="0.05"/>
<path d="M33.5892 13.7172C33.573 13.4423 33.4564 13.1829 33.2617 12.9882C33.067 12.7935 32.8076 12.6769 32.5327 12.6607C27.5377 12.3663 23.5139 13.9141 21.7664 16.7988C20.6283 18.6738 20.5889 20.9397 21.6296 23.1082C21.1845 23.6756 20.8291 24.308 20.5758 24.9832L19.6664 24.0738C20.3405 22.5016 20.2692 20.876 19.4414 19.5091C18.1308 17.3463 15.1458 16.1875 11.4577 16.4013C11.1828 16.4176 10.9234 16.5341 10.7287 16.7288C10.5339 16.9236 10.4174 17.1829 10.4011 17.4579C10.1874 21.146 11.3461 24.131 13.5108 25.4416C14.245 25.8891 15.0885 26.1249 15.9483 26.1232C16.6813 26.1172 17.4054 25.9618 18.0764 25.6666L20.1249 27.7188V30.25C20.1249 30.5484 20.2434 30.8346 20.4544 31.0455C20.6654 31.2565 20.9515 31.375 21.2499 31.375C21.5482 31.375 21.8344 31.2565 22.0454 31.0455C22.2563 30.8346 22.3749 30.5484 22.3749 30.25V27.4854C22.3726 26.4797 22.6835 25.4983 23.2646 24.6775C24.2051 25.1249 25.2315 25.3628 26.273 25.375C27.3938 25.3777 28.4936 25.0708 29.4511 24.4882C32.3358 22.736 33.8836 18.7113 33.5892 13.7172ZM14.6761 23.5169C13.4396 22.7669 12.6905 20.9425 12.6296 18.6297C14.9424 18.6907 16.7677 19.4407 17.5167 20.6763C17.8097 21.1528 17.9298 21.7155 17.8571 22.27L16.7949 21.2041C16.5835 20.9928 16.2969 20.874 15.998 20.874C15.6991 20.874 15.4125 20.9928 15.2011 21.2041C14.9898 21.4154 14.871 21.7021 14.871 22.001C14.871 22.2999 14.9898 22.5865 15.2011 22.7979L16.2642 23.861C15.7112 23.9293 15.1513 23.808 14.6761 23.5169ZM28.2858 22.5625C27.2864 23.1672 26.1296 23.2816 24.9286 22.915L28.4208 19.4238C28.6322 19.2124 28.7509 18.9258 28.7509 18.6269C28.7509 18.328 28.6322 18.0414 28.4208 17.83C28.2095 17.6187 27.9228 17.5 27.6239 17.5C27.325 17.5 27.0384 17.6187 26.8271 17.83L23.3349 21.3213C22.9721 20.125 23.0864 18.9635 23.6874 17.9688C24.8846 15.9916 27.7186 14.8685 31.3749 14.875C31.388 18.5313 30.263 21.3607 28.2858 22.5625Z" fill="#303030" fill-opacity="0.4"/>
</svg>
