<svg width="58" height="58" viewBox="0 0 58 58" fill="none" xmlns="http://www.w3.org/2000/svg">
<rect width="58" height="58" rx="24" fill="#00C77F" fill-opacity="0.05"/>
<path d="M47.35 15.8855C47.3243 15.4503 47.1398 15.0396 46.8314 14.7313C46.5231 14.4229 46.1124 14.2384 45.6772 14.2126C37.7684 13.7466 31.3975 16.1973 28.6306 20.7647C26.8286 23.7334 26.7662 27.3212 28.4139 30.7545C27.7092 31.653 27.1465 32.6542 26.7454 33.7233L25.3056 32.2834C26.3729 29.7941 26.26 27.2202 24.9493 25.056C22.8742 21.6316 18.1479 19.7969 12.3084 20.1353C11.8731 20.1611 11.4624 20.3456 11.1541 20.6539C10.8458 20.9622 10.6613 21.3729 10.6355 21.8082C10.2971 27.6477 12.1318 32.374 15.5592 34.4491C16.7216 35.1576 18.0572 35.5311 19.4186 35.5283C20.5792 35.5188 21.7257 35.2728 22.7881 34.8054L26.0315 38.0547V42.0625C26.0315 42.5349 26.2191 42.988 26.5532 43.322C26.8872 43.6561 27.3403 43.8437 27.8127 43.8437C28.2851 43.8437 28.7382 43.6561 29.0722 43.322C29.4063 42.988 29.594 42.5349 29.594 42.0625V37.6851C29.5903 36.0928 30.0826 34.5389 31.0026 33.2394C32.4919 33.9476 34.117 34.3244 35.766 34.3437C37.5406 34.3479 39.282 33.862 40.798 32.9395C45.3654 30.1652 47.8161 23.7928 47.35 15.8855ZM17.4043 31.4017C15.4464 30.2142 14.2604 27.3256 14.1639 23.6637C17.8258 23.7601 20.7159 24.9476 21.9019 26.9041C22.3657 27.6585 22.556 28.5494 22.4407 29.4275L20.759 27.7398C20.4243 27.4051 19.9705 27.2171 19.4972 27.2171C19.024 27.2171 18.5701 27.4051 18.2355 27.7398C17.9009 28.0744 17.7129 28.5282 17.7129 29.0015C17.7129 29.4747 17.9009 29.9286 18.2355 30.2632L19.9188 31.9465C19.0431 32.0546 18.1567 31.8625 17.4043 31.4017ZM38.9529 29.8906C37.3706 30.848 35.5389 31.0291 33.6374 30.4487L39.1667 24.9209C39.5013 24.5863 39.6893 24.1324 39.6893 23.6592C39.6893 23.186 39.5013 22.7321 39.1667 22.3975C38.8321 22.0629 38.3782 21.8749 37.905 21.8749C37.4317 21.8749 36.9779 22.0629 36.6432 22.3975L31.114 27.9253C30.5395 26.0312 30.7206 24.1921 31.6721 22.6172C33.5676 19.4866 38.0549 17.7084 43.8439 17.7187C43.8647 23.5078 42.0835 27.9876 38.9529 29.8906Z" fill="#00C77F"/>
</svg>
