<svg width="42" height="35" viewBox="0 0 42 35" fill="none" xmlns="http://www.w3.org/2000/svg">
<g clip-path="url(#clip0_1220_2718)">
<path d="M41.1663 4.52065C39.661 5.20498 38.0644 5.65418 36.4296 5.8533C38.1325 4.80587 39.44 3.14722 40.0557 1.17095C38.4369 2.15681 36.6657 2.8514 34.8188 3.22473C33.3144 1.57994 31.1712 0.552002 28.7991 0.552002C24.2445 0.552002 20.5519 4.34145 20.5519 9.01526C20.5519 9.67869 20.6249 10.3246 20.7654 10.9442C13.9114 10.5911 7.83468 7.22174 3.76703 2.10124C3.05729 3.35123 2.65061 4.80523 2.65061 6.35607C2.65061 9.29243 4.10667 11.8828 6.31942 13.4006C5.00978 13.3585 3.72895 12.9955 2.58387 12.3419C2.5834 12.3774 2.5834 12.4128 2.5834 12.4484C2.5834 16.5491 5.42612 19.9698 9.19872 20.7473C7.9843 21.0863 6.71045 21.1359 5.47448 20.8924C6.52386 24.2548 9.56961 26.7016 13.1783 26.7701C10.3558 29.0399 6.79975 30.3931 2.93607 30.3931C2.2703 30.3931 1.61395 30.3529 0.96875 30.2748C4.6184 32.6761 8.9533 34.0773 13.6106 34.0773C28.7799 34.0773 37.0749 21.1808 37.0749 9.99679C37.0749 9.6297 37.0671 9.26471 37.0511 8.90182C38.6656 7.70401 40.0591 6.22041 41.1663 4.52065Z" fill="#55ACEE"/>
</g>
<defs>
<clipPath id="clip0_1220_2718">
<rect width="40.1975" height="33.679" fill="white" transform="translate(0.96875 0.419678)"/>
</clipPath>
</defs>
</svg>
