<svg width="48" height="48" viewBox="0 0 48 48" fill="none" xmlns="http://www.w3.org/2000/svg">
<g clip-path="url(#clip0_1220_2705)">
<path d="M47.3567 24.0001C47.3567 11.0999 36.8988 0.64209 23.9986 0.64209C11.0985 0.64209 0.640625 11.0997 0.640625 24.0001C0.640625 35.6587 9.18236 45.3222 20.349 47.0744V30.752H14.4182V24.0001H20.349V18.854C20.349 12.9999 23.8362 9.76632 29.1715 9.76632C31.7272 9.76632 34.4003 10.2225 34.4003 10.2225V15.9708H31.455C28.5531 15.9708 27.6483 17.7714 27.6483 19.6187V24.0001H34.1265L33.0909 30.752H27.6483V47.0744C38.8149 45.3222 47.3567 35.6589 47.3567 24.0001Z" fill="#1877F2"/>
<path d="M33.0868 30.7518L34.1224 23.9999H27.6442V19.6185C27.6442 17.771 28.5491 15.9706 31.4508 15.9706H34.3961V10.2223C34.3961 10.2223 31.7231 9.76611 29.1674 9.76611C23.8321 9.76611 20.3448 12.9997 20.3448 18.8538V23.9999H14.4141V30.7518H20.3448V47.0742C21.5522 47.2634 22.7724 47.3583 23.9945 47.3579C25.2166 47.3583 26.4368 47.2634 27.6442 47.0742V30.7518H33.0868Z" fill="white"/>
</g>
<defs>
<clipPath id="clip0_1220_2705">
<rect width="46.716" height="46.716" fill="white" transform="translate(0.640625 0.64209)"/>
</clipPath>
</defs>
</svg>
