<svg width="24" height="25" viewBox="0 0 24 25" fill="none" xmlns="http://www.w3.org/2000/svg">
<path d="M23.5892 4.21717C23.573 3.94226 23.4564 3.68287 23.2617 3.48814C23.067 3.29341 22.8076 3.17687 22.5327 3.1606C17.5377 2.86623 13.5139 4.41404 11.7664 7.29873C10.6283 9.17373 10.5889 11.4397 11.6296 13.6081C11.1845 14.1755 10.8291 14.8079 10.5758 15.4831L9.66643 14.5737C10.3405 13.0015 10.2692 11.3759 9.44143 10.009C8.13081 7.84623 5.14581 6.68748 1.45768 6.90123C1.18278 6.9175 0.923386 7.03404 0.728658 7.22877C0.53393 7.4235 0.417391 7.68289 0.401119 7.95779C0.187369 11.6459 1.34612 14.6309 3.51081 15.9415C4.24497 16.389 5.08852 16.6249 5.94831 16.6231C6.68133 16.6171 7.40545 16.4617 8.07643 16.1665L10.1249 18.2187V20.75C10.1249 21.0483 10.2434 21.3345 10.4544 21.5455C10.6654 21.7565 10.9515 21.875 11.2499 21.875C11.5482 21.875 11.8344 21.7565 12.0454 21.5455C12.2563 21.3345 12.3749 21.0483 12.3749 20.75V17.9853C12.3726 16.9797 12.6835 15.9983 13.2646 15.1775C14.2051 15.6248 15.2315 15.8628 16.273 15.875C17.3938 15.8776 18.4936 15.5707 19.4511 14.9881C22.3358 13.2359 23.8836 9.21123 23.5892 4.21717ZM4.67612 14.0169C3.43956 13.2669 2.69049 11.4425 2.62956 9.12967C4.94237 9.1906 6.76768 9.9406 7.51674 11.1762C7.80968 11.6527 7.92983 12.2154 7.85706 12.77L6.79487 11.704C6.58353 11.4927 6.29688 11.374 5.99799 11.374C5.69911 11.374 5.41246 11.4927 5.20112 11.704C4.98977 11.9154 4.87104 12.202 4.87104 12.5009C4.87104 12.7998 4.98977 13.0864 5.20112 13.2978L6.26424 14.3609C5.71119 14.4292 5.15132 14.3079 4.67612 14.0169ZM18.2858 13.0625C17.2864 13.6672 16.1296 13.7815 14.9286 13.415L18.4208 9.92373C18.6322 9.71238 18.7509 9.42574 18.7509 9.12685C18.7509 8.82797 18.6322 8.54132 18.4208 8.32998C18.2095 8.11863 17.9228 7.9999 17.6239 7.9999C17.325 7.9999 17.0384 8.11863 16.8271 8.32998L13.3349 11.8212C12.9721 10.625 13.0864 9.46342 13.6874 8.46873C14.8846 6.49154 17.7186 5.36842 21.3749 5.37498C21.388 9.03123 20.263 11.8606 18.2858 13.0625Z" fill="#303030" fill-opacity="0.4"/>
</svg>
