<svg width="30" height="31" viewBox="0 0 30 31" fill="none" xmlns="http://www.w3.org/2000/svg">
<rect y="0.5" width="30" height="30" rx="15" fill="#FF7C24" fill-opacity="0.1"/>
<rect x="0.5" y="1" width="29" height="29" rx="14.5" stroke="#FF7C24" stroke-opacity="0.05"/>
<path d="M15 8.75C13.665 8.75 12.3599 9.14588 11.2499 9.88758C10.1399 10.6293 9.27471 11.6835 8.76382 12.9169C8.25292 14.1503 8.11925 15.5075 8.3797 16.8169C8.64015 18.1262 9.28303 19.329 10.227 20.273C11.171 21.217 12.3738 21.8598 13.6831 22.1203C14.9925 22.3808 16.3497 22.2471 17.5831 21.7362C18.8165 21.2253 19.8707 20.3601 20.6124 19.2501C21.3541 18.1401 21.75 16.835 21.75 15.5C21.748 13.7104 21.0362 11.9947 19.7708 10.7292C18.5053 9.46378 16.7896 8.75199 15 8.75ZM15 20.75C13.9617 20.75 12.9466 20.4421 12.0833 19.8652C11.2199 19.2883 10.547 18.4684 10.1496 17.5091C9.75228 16.5498 9.64831 15.4942 9.85088 14.4758C10.0535 13.4574 10.5535 12.5219 11.2877 11.7877C12.0219 11.0535 12.9574 10.5534 13.9758 10.3509C14.9942 10.1483 16.0498 10.2523 17.0091 10.6496C17.9684 11.047 18.7883 11.7199 19.3652 12.5833C19.9421 13.4466 20.25 14.4616 20.25 15.5C20.2485 16.8919 19.6949 18.2264 18.7107 19.2107C17.7264 20.1949 16.3919 20.7485 15 20.75ZM19.25 15.5C19.25 15.6989 19.171 15.8897 19.0303 16.0303C18.8897 16.171 18.6989 16.25 18.5 16.25H15C14.8011 16.25 14.6103 16.171 14.4697 16.0303C14.329 15.8897 14.25 15.6989 14.25 15.5V12C14.25 11.8011 14.329 11.6103 14.4697 11.4697C14.6103 11.329 14.8011 11.25 15 11.25C15.1989 11.25 15.3897 11.329 15.5303 11.4697C15.671 11.6103 15.75 11.8011 15.75 12V14.75H18.5C18.6989 14.75 18.8897 14.829 19.0303 14.9697C19.171 15.1103 19.25 15.3011 19.25 15.5Z" fill="#FF7C24"/>
</svg>
