<svg width="30" height="31" viewBox="0 0 30 31" fill="none" xmlns="http://www.w3.org/2000/svg">
<rect y="0.5" width="30" height="30" rx="15" fill="#00C77F" fill-opacity="0.1"/>
<rect x="0.5" y="1" width="29" height="29" rx="14.5" stroke="#00C77F" stroke-opacity="0.05"/>
<path d="M16.5259 13.035L10.9259 18.535C10.7856 18.6728 10.5968 18.75 10.4002 18.75C10.2036 18.75 10.0149 18.6728 9.8746 18.535L7.4746 16.1781C7.4043 16.1091 7.34829 16.0269 7.30976 15.9362C7.27123 15.8456 7.25093 15.7482 7.25003 15.6497C7.24821 15.4507 7.32551 15.2592 7.46491 15.1172C7.53394 15.0469 7.61614 14.9909 7.70681 14.9523C7.79748 14.9138 7.89486 14.8935 7.99338 14.8926C8.19234 14.8908 8.38388 14.9681 8.52585 15.1075L10.4009 16.9488L15.4752 11.965C15.6171 11.8256 15.8086 11.7483 16.0075 11.75C16.2064 11.7518 16.3964 11.8325 16.5359 11.9744C16.6753 12.1163 16.7526 12.3077 16.7508 12.5066C16.7491 12.7055 16.6684 12.8956 16.5265 13.035H16.5259ZM22.5352 11.9725C22.4662 11.902 22.3839 11.8458 22.293 11.8071C22.2022 11.7684 22.1046 11.7481 22.0059 11.7472C21.9072 11.7463 21.8093 11.765 21.7178 11.802C21.6263 11.8391 21.543 11.8938 21.4727 11.9631L16.4002 16.9488L15.9077 16.465C15.7658 16.3256 15.5744 16.2483 15.3755 16.25C15.1766 16.2518 14.9865 16.3325 14.8471 16.4744C14.7077 16.6163 14.6304 16.8077 14.6321 17.0066C14.6339 17.2055 14.7146 17.3956 14.8565 17.535L15.8746 18.535C16.0149 18.6728 16.2036 18.75 16.4002 18.75C16.5968 18.75 16.7856 18.6728 16.9259 18.535L22.5259 13.035C22.5961 12.966 22.6521 12.8838 22.6906 12.7931C22.7291 12.7025 22.7493 12.6051 22.7502 12.5066C22.7511 12.4081 22.7325 12.3104 22.6957 12.2191C22.6588 12.1278 22.6043 12.0446 22.5352 11.9744V11.9725Z" fill="#00C77F"/>
</svg>
