<svg width="24" height="24" viewBox="0 0 24 24" fill="none" xmlns="http://www.w3.org/2000/svg">
<path d="M22.875 11.25C22.8735 9.95755 22.3595 8.71844 21.4455 7.80452C20.5316 6.89061 19.2925 6.37651 18 6.37503H14.28C13.9575 6.35534 9.34879 6.00003 4.95566 2.31565C4.68238 2.08621 4.34931 1.93952 3.99556 1.89279C3.64181 1.84607 3.28208 1.90125 2.9586 2.05187C2.63512 2.20248 2.36134 2.44227 2.1694 2.74308C1.97747 3.04388 1.87535 3.3932 1.87504 3.75003V18.75C1.87278 19.1073 1.97366 19.4576 2.16556 19.7589C2.35746 20.0602 2.63224 20.2997 2.95691 20.4488C3.2802 20.6014 3.64059 20.6577 3.99503 20.611C4.34946 20.5643 4.68296 20.4165 4.95566 20.1853C7.20429 18.295 9.87953 16.9809 12.75 16.3566V18.8128C12.75 19.1214 12.8261 19.4253 12.9717 19.6974C13.1172 19.9696 13.3277 20.2016 13.5844 20.3728C13.626 20.4009 13.6696 20.4259 13.7147 20.4478L15.0685 21.1097C15.3187 21.2595 15.6004 21.3489 15.8912 21.3707C16.182 21.3925 16.4739 21.3462 16.7437 21.2354C17.0135 21.1247 17.2537 20.9525 17.4453 20.7326C17.6368 20.5127 17.7745 20.2512 17.8472 19.9688L18.8869 16.0481C20.0072 15.8396 21.0192 15.2457 21.7476 14.3694C22.4759 13.4931 22.8748 12.3895 22.875 11.25ZM4.12504 17.9653V4.53753C7.51597 7.16909 10.891 8.1094 12.75 8.44315V14.0625C10.891 14.3925 7.51597 15.3328 4.12504 17.9653ZM15.7866 18.9563L15 18.5719V16.125H16.5375L15.7866 18.9563ZM18 13.875H15V8.62503H18C18.6962 8.62503 19.3639 8.90159 19.8562 9.39387C20.3485 9.88615 20.625 10.5538 20.625 11.25C20.625 11.9462 20.3485 12.6139 19.8562 13.1062C19.3639 13.5985 18.6962 13.875 18 13.875Z" fill="#303030" fill-opacity="0.4"/>
</svg>
