<svg width="201" height="201" viewBox="0 0 201 201" fill="none" xmlns="http://www.w3.org/2000/svg">
<path d="M100.503 0.083313C80.6421 0.083313 61.2276 5.97265 44.7141 17.0066C28.2007 28.0405 15.33 43.7234 7.72975 62.0722C0.129446 80.4209 -1.85914 100.611 2.01546 120.09C5.89006 139.569 15.4538 157.462 29.4973 171.505C43.5409 185.549 61.4334 195.113 80.9123 198.987C100.391 202.862 120.582 200.873 138.93 193.273C157.279 185.673 172.962 172.802 183.996 156.289C195.03 139.775 200.919 120.361 200.919 100.5C200.919 87.3131 198.322 74.2553 193.276 62.0722C188.229 49.8891 180.833 38.8192 171.508 29.4947C162.183 20.1701 151.114 12.7735 138.93 7.72708C126.747 2.68067 113.69 0.083313 100.503 0.083313ZM143.682 76.5004L97.7914 136.75C96.8559 137.966 95.6546 138.95 94.2795 139.629C92.9044 140.308 91.392 140.663 89.8585 140.667C88.3332 140.675 86.8261 140.336 85.4516 139.674C84.0771 139.013 82.8712 138.048 81.9256 136.851L57.4239 105.621C56.6129 104.579 56.015 103.388 55.6644 102.115C55.3139 100.843 55.2174 99.5131 55.3806 98.203C55.5438 96.8929 55.9634 95.6278 56.6155 94.4799C57.2676 93.3319 58.1394 92.3237 59.1812 91.5127C61.2851 89.8748 63.9535 89.1398 66.5994 89.4694C67.9095 89.6326 69.1746 90.0522 70.3226 90.7043C71.4705 91.3564 72.4787 92.2282 73.2897 93.27L89.6577 114.157L127.615 63.9483C128.42 62.8934 129.424 62.0072 130.571 61.3404C131.718 60.6735 132.985 60.2392 134.299 60.062C135.614 59.8848 136.951 59.9684 138.233 60.3078C139.516 60.6473 140.719 61.236 141.774 62.0404C142.829 62.8448 143.715 63.8491 144.382 64.996C145.049 66.1429 145.483 67.4099 145.66 68.7246C145.837 70.0394 145.754 71.3762 145.414 72.6587C145.075 73.9411 144.486 75.1442 143.682 76.1992V76.5004Z" fill="#FF7C24"/>
</svg>
