<svg width="91" height="91" viewBox="0 0 91 91" fill="none" xmlns="http://www.w3.org/2000/svg">
<rect width="91" height="91" rx="14" fill="#FFF2E9"/>
<path d="M57.008 53.714C57.008 55.614 56.533 57.4 55.583 59.072C54.671 60.744 53.303 62.15 51.479 63.29C49.693 64.43 47.565 65.114 45.095 65.342V69.959H41.39V65.342C37.818 65 34.93 63.879 32.726 61.979C30.522 60.079 29.42 57.571 29.42 54.455H36.374C36.488 55.937 36.963 57.172 37.799 58.16C38.635 59.11 39.832 59.718 41.39 59.984V47.444C38.844 46.798 36.773 46.152 35.177 45.506C33.581 44.822 32.213 43.758 31.073 42.314C29.971 40.87 29.42 38.894 29.42 36.386C29.42 33.232 30.522 30.629 32.726 28.577C34.93 26.487 37.818 25.271 41.39 24.929V20.312H45.095V24.929C48.439 25.233 51.118 26.297 53.132 28.121C55.184 29.907 56.343 32.377 56.609 35.531H49.655C49.541 34.353 49.085 33.308 48.287 32.396C47.489 31.446 46.425 30.8 45.095 30.458V42.77C47.641 43.378 49.712 44.024 51.308 44.708C52.904 45.354 54.253 46.399 55.355 47.843C56.457 49.249 57.008 51.206 57.008 53.714ZM36.032 36.044C36.032 37.602 36.488 38.818 37.4 39.692C38.35 40.566 39.68 41.269 41.39 41.801V30.287C39.756 30.477 38.445 31.066 37.457 32.054C36.507 33.042 36.032 34.372 36.032 36.044ZM45.095 59.984C46.767 59.718 48.078 59.053 49.028 57.989C49.978 56.887 50.453 55.576 50.453 54.056C50.453 52.536 49.978 51.358 49.028 50.522C48.116 49.648 46.805 48.945 45.095 48.413V59.984Z" fill="#FF7C24"/>
</svg>
