<svg width="44" height="44" viewBox="0 0 44 44" fill="none" xmlns="http://www.w3.org/2000/svg">
<rect width="44" height="44" rx="22" fill="#9747FF" fill-opacity="0.05"/>
<path d="M28.375 23.125C28.375 23.4217 28.287 23.7117 28.1222 23.9584C27.9574 24.205 27.7231 24.3973 27.449 24.5108C27.175 24.6244 26.8734 24.6541 26.5824 24.5962C26.2914 24.5383 26.0241 24.3954 25.8144 24.1857C25.6046 23.9759 25.4617 23.7086 25.4038 23.4176C25.346 23.1267 25.3757 22.8251 25.4892 22.551C25.6027 22.2769 25.795 22.0426 26.0417 21.8778C26.2883 21.713 26.5783 21.625 26.875 21.625C27.2728 21.625 27.6544 21.783 27.9357 22.0643C28.217 22.3456 28.375 22.7272 28.375 23.125ZM32.125 20.125V27.625C32.125 28.4206 31.8089 29.1837 31.2463 29.7463C30.6837 30.3089 29.9207 30.625 29.125 30.625H15.625C14.8294 30.625 14.0663 30.3089 13.5037 29.7463C12.9411 29.1837 12.625 28.4206 12.625 27.625V16.4613C12.6135 16.0601 12.6826 15.6607 12.8281 15.2867C12.9737 14.9127 13.1929 14.5717 13.4726 14.284C13.7523 13.9962 14.087 13.7675 14.4567 13.6113C14.8264 13.4552 15.2237 13.3748 15.625 13.375H28C28.2984 13.375 28.5845 13.4935 28.7955 13.7045C29.0065 13.9155 29.125 14.2016 29.125 14.5C29.125 14.7984 29.0065 15.0845 28.7955 15.2955C28.5845 15.5065 28.2984 15.625 28 15.625H15.625C15.5244 15.6249 15.4249 15.6451 15.3323 15.6843C15.2396 15.7235 15.1559 15.781 15.0859 15.8532C15.0159 15.9255 14.9612 16.011 14.925 16.1049C14.8887 16.1987 14.8718 16.2989 14.875 16.3994V16.4069C14.8908 16.6055 14.9819 16.7905 15.1297 16.924C15.2776 17.0575 15.4709 17.1295 15.67 17.125H29.125C29.9207 17.125 30.6837 17.4411 31.2463 18.0037C31.8089 18.5663 32.125 19.3294 32.125 20.125ZM29.875 20.125C29.875 19.9261 29.796 19.7353 29.6553 19.5947C29.5147 19.454 29.3239 19.375 29.125 19.375H15.67C15.4018 19.3751 15.1347 19.3411 14.875 19.2738V27.625C14.875 27.8239 14.954 28.0147 15.0947 28.1553C15.2353 28.296 15.4261 28.375 15.625 28.375H29.125C29.3239 28.375 29.5147 28.296 29.6553 28.1553C29.796 28.0147 29.875 27.8239 29.875 27.625V20.125Z" fill="#9747FF"/>
</svg>
