<svg width="91" height="91" viewBox="0 0 91 91" fill="none" xmlns="http://www.w3.org/2000/svg">
<rect width="91" height="91" rx="14" fill="#FF7C24"/>
<path d="M52.4286 54.1428C53.7925 54.1428 55.1006 54.6847 56.0651 55.6491C57.0296 56.6136 57.5714 57.9217 57.5714 59.2857V62.7188L57.5531 62.9657C56.8446 67.8274 52.4788 70.1634 45.1531 70.1634C37.8548 70.1634 33.4183 67.8548 32.4606 63.0502L32.4286 62.7142V59.2857C32.4286 57.9217 32.9704 56.6136 33.9349 55.6491C34.8993 54.6847 36.2074 54.1428 37.5714 54.1428H52.4286ZM52.4286 57.5714H37.5714C37.1168 57.5714 36.6807 57.752 36.3592 58.0735C36.0377 58.395 35.8571 58.831 35.8571 59.2857V62.5314C36.4971 65.2743 39.4 66.7348 45.1531 66.7348C50.904 66.7348 53.6788 65.2925 54.1428 62.584V59.2857C54.1428 58.831 53.9622 58.395 53.6407 58.0735C53.3192 57.752 52.8832 57.5714 52.4286 57.5714ZM54.7006 40.4262L67.2857 40.4285C68.6497 40.4285 69.9578 40.9704 70.9222 41.9348C71.8867 42.8993 72.4286 44.2074 72.4286 45.5714V49.0045L72.4103 49.2514C71.7017 54.1131 67.336 56.4491 60.0103 56.4491L59.2903 56.4422C58.6153 54.8152 57.385 53.4804 55.8183 52.6754C56.9954 52.904 58.3897 53.0205 60.0103 53.0205C65.7611 53.0205 68.536 51.5782 69 48.8697V45.5714C69 45.1167 68.8194 44.6807 68.4979 44.3592C68.1764 44.0377 67.7403 43.8571 67.2857 43.8571H55.2857C55.2857 42.6548 55.08 41.4982 54.7006 40.4262ZM22.7143 40.4285L35.2994 40.4262C34.9767 41.3394 34.785 42.2936 34.7303 43.2605L34.7143 43.8571H22.7143C22.2596 43.8571 21.8236 44.0377 21.5021 44.3592C21.1806 44.6807 21 45.1167 21 45.5714V48.8171C21.64 51.56 24.5428 53.0205 30.296 53.0205C31.7177 53.0205 32.9566 52.9314 34.0263 52.7577C32.5302 53.5707 31.358 54.8719 30.7051 56.4445L30.2937 56.4491C22.9977 56.4491 18.5611 54.1405 17.6034 49.336L17.5714 49V45.5714C17.5714 44.2074 18.1132 42.8993 19.0777 41.9348C20.0422 40.9704 21.3503 40.4285 22.7143 40.4285ZM45 35.8571C47.1217 35.8571 49.1565 36.7 50.6568 38.2003C52.1571 39.7005 53 41.7354 53 43.8571C53 45.9788 52.1571 48.0137 50.6568 49.514C49.1565 51.0143 47.1217 51.8571 45 51.8571C42.8782 51.8571 40.8434 51.0143 39.3431 49.514C37.8428 48.0137 37 45.9788 37 43.8571C37 41.7354 37.8428 39.7005 39.3431 38.2003C40.8434 36.7 42.8782 35.8571 45 35.8571ZM45 39.2857C43.7876 39.2857 42.6248 39.7673 41.7675 40.6246C40.9102 41.4819 40.4286 42.6447 40.4286 43.8571C40.4286 45.0695 40.9102 46.2323 41.7675 47.0896C42.6248 47.9469 43.7876 48.4285 45 48.4285C46.2124 48.4285 47.3752 47.9469 48.2325 47.0896C49.0898 46.2323 49.5714 45.0695 49.5714 43.8571C49.5714 42.6447 49.0898 41.4819 48.2325 40.6246C47.3752 39.7673 46.2124 39.2857 45 39.2857ZM59.8571 22.1428C61.9789 22.1428 64.0137 22.9857 65.514 24.486C67.0143 25.9863 67.8571 28.0211 67.8571 30.1428C67.8571 32.2646 67.0143 34.2994 65.514 35.7997C64.0137 37.3 61.9789 38.1428 59.8571 38.1428C57.7354 38.1428 55.7006 37.3 54.2003 35.7997C52.7 34.2994 51.8571 32.2646 51.8571 30.1428C51.8571 28.0211 52.7 25.9863 54.2003 24.486C55.7006 22.9857 57.7354 22.1428 59.8571 22.1428ZM30.1428 22.1428C32.2646 22.1428 34.2994 22.9857 35.7997 24.486C37.3 25.9863 38.1428 28.0211 38.1428 30.1428C38.1428 32.2646 37.3 34.2994 35.7997 35.7997C34.2994 37.3 32.2646 38.1428 30.1428 38.1428C28.0211 38.1428 25.9863 37.3 24.486 35.7997C22.9857 34.2994 22.1428 32.2646 22.1428 30.1428C22.1428 28.0211 22.9857 25.9863 24.486 24.486C25.9863 22.9857 28.0211 22.1428 30.1428 22.1428ZM59.8571 25.5714C58.6447 25.5714 57.4819 26.053 56.6246 26.9103C55.7673 27.7676 55.2857 28.9304 55.2857 30.1428C55.2857 31.3552 55.7673 32.518 56.6246 33.3753C57.4819 34.2326 58.6447 34.7143 59.8571 34.7143C61.0695 34.7143 62.2323 34.2326 63.0896 33.3753C63.9469 32.518 64.4286 31.3552 64.4286 30.1428C64.4286 28.9304 63.9469 27.7676 63.0896 26.9103C62.2323 26.053 61.0695 25.5714 59.8571 25.5714ZM30.1428 25.5714C28.9304 25.5714 27.7677 26.053 26.9104 26.9103C26.053 27.7676 25.5714 28.9304 25.5714 30.1428C25.5714 31.3552 26.053 32.518 26.9104 33.3753C27.7677 34.2326 28.9304 34.7143 30.1428 34.7143C31.3553 34.7143 32.518 34.2326 33.3753 33.3753C34.2326 32.518 34.7143 31.3552 34.7143 30.1428C34.7143 28.9304 34.2326 27.7676 33.3753 26.9103C32.518 26.053 31.3553 25.5714 30.1428 25.5714Z" fill="white"/>
</svg>
