<svg width="196" height="60" viewBox="0 0 196 60" fill="none" xmlns="http://www.w3.org/2000/svg">
<rect width="196" height="60" rx="30" fill="#FF3D00"/>
<path d="M87.3228 24.8C88.1761 24.8 88.9295 24.9733 89.5828 25.32C90.2495 25.6533 90.7695 26.0733 91.1428 26.58V24.98H93.4428V36.18C93.4428 37.1933 93.2295 38.0933 92.8028 38.88C92.3761 39.68 91.7561 40.3067 90.9428 40.76C90.1428 41.2133 89.1828 41.44 88.0628 41.44C86.5695 41.44 85.3295 41.0867 84.3428 40.38C83.3561 39.6867 82.7961 38.74 82.6628 37.54H84.9228C85.0961 38.1133 85.4628 38.5733 86.0228 38.92C86.5961 39.28 87.2761 39.46 88.0628 39.46C88.9828 39.46 89.7228 39.18 90.2828 38.62C90.8561 38.06 91.1428 37.2467 91.1428 36.18V34.34C90.7561 34.86 90.2295 35.3 89.5628 35.66C88.9095 36.0067 88.1628 36.18 87.3228 36.18C86.3628 36.18 85.4828 35.94 84.6828 35.46C83.8961 34.9667 83.2695 34.2867 82.8028 33.42C82.3495 32.54 82.1228 31.5467 82.1228 30.44C82.1228 29.3333 82.3495 28.3533 82.8028 27.5C83.2695 26.6467 83.8961 25.9867 84.6828 25.52C85.4828 25.04 86.3628 24.8 87.3228 24.8ZM91.1428 30.48C91.1428 29.72 90.9828 29.06 90.6628 28.5C90.3561 27.94 89.9495 27.5133 89.4428 27.22C88.9361 26.9267 88.3895 26.78 87.8028 26.78C87.2161 26.78 86.6695 26.9267 86.1628 27.22C85.6561 27.5 85.2428 27.92 84.9228 28.48C84.6161 29.0267 84.4628 29.68 84.4628 30.44C84.4628 31.2 84.6161 31.8667 84.9228 32.44C85.2428 33.0133 85.6561 33.4533 86.1628 33.76C86.6828 34.0533 87.2295 34.2 87.8028 34.2C88.3895 34.2 88.9361 34.0533 89.4428 33.76C89.9495 33.4667 90.3561 33.04 90.6628 32.48C90.9828 31.9067 91.1428 31.24 91.1428 30.48ZM101.218 36.18C100.178 36.18 99.2375 35.9467 98.3975 35.48C97.5575 35 96.8975 34.3333 96.4175 33.48C95.9375 32.6133 95.6975 31.6133 95.6975 30.48C95.6975 29.36 95.9442 28.3667 96.4375 27.5C96.9308 26.6333 97.6042 25.9667 98.4575 25.5C99.3108 25.0333 100.264 24.8 101.318 24.8C102.371 24.8 103.324 25.0333 104.178 25.5C105.031 25.9667 105.704 26.6333 106.198 27.5C106.691 28.3667 106.938 29.36 106.938 30.48C106.938 31.6 106.684 32.5933 106.178 33.46C105.671 34.3267 104.978 35 104.098 35.48C103.231 35.9467 102.271 36.18 101.218 36.18ZM101.218 34.2C101.804 34.2 102.351 34.06 102.858 33.78C103.378 33.5 103.798 33.08 104.118 32.52C104.438 31.96 104.598 31.28 104.598 30.48C104.598 29.68 104.444 29.0067 104.138 28.46C103.831 27.9 103.424 27.48 102.918 27.2C102.411 26.92 101.864 26.78 101.278 26.78C100.691 26.78 100.144 26.92 99.6375 27.2C99.1442 27.48 98.7508 27.9 98.4575 28.46C98.1642 29.0067 98.0175 29.68 98.0175 30.48C98.0175 31.6667 98.3175 32.5867 98.9175 33.24C99.5308 33.88 100.298 34.2 101.218 34.2ZM113.971 36.18C112.931 36.18 111.991 35.9467 111.151 35.48C110.311 35 109.651 34.3333 109.171 33.48C108.691 32.6133 108.451 31.6133 108.451 30.48C108.451 29.36 108.698 28.3667 109.191 27.5C109.685 26.6333 110.358 25.9667 111.211 25.5C112.065 25.0333 113.018 24.8 114.071 24.8C115.125 24.8 116.078 25.0333 116.931 25.5C117.785 25.9667 118.458 26.6333 118.951 27.5C119.445 28.3667 119.691 29.36 119.691 30.48C119.691 31.6 119.438 32.5933 118.931 33.46C118.425 34.3267 117.731 35 116.851 35.48C115.985 35.9467 115.025 36.18 113.971 36.18ZM113.971 34.2C114.558 34.2 115.105 34.06 115.611 33.78C116.131 33.5 116.551 33.08 116.871 32.52C117.191 31.96 117.351 31.28 117.351 30.48C117.351 29.68 117.198 29.0067 116.891 28.46C116.585 27.9 116.178 27.48 115.671 27.2C115.165 26.92 114.618 26.78 114.031 26.78C113.445 26.78 112.898 26.92 112.391 27.2C111.898 27.48 111.505 27.9 111.211 28.46C110.918 29.0067 110.771 29.68 110.771 30.48C110.771 31.6667 111.071 32.5867 111.671 33.24C112.285 33.88 113.051 34.2 113.971 34.2ZM126.385 24.8C127.239 24.8 127.992 24.9733 128.645 25.32C129.312 25.6533 129.832 26.0733 130.205 26.58V24.98H132.505V36.18C132.505 37.1933 132.292 38.0933 131.865 38.88C131.439 39.68 130.819 40.3067 130.005 40.76C129.205 41.2133 128.245 41.44 127.125 41.44C125.632 41.44 124.392 41.0867 123.405 40.38C122.419 39.6867 121.859 38.74 121.725 37.54H123.985C124.159 38.1133 124.525 38.5733 125.085 38.92C125.659 39.28 126.339 39.46 127.125 39.46C128.045 39.46 128.785 39.18 129.345 38.62C129.919 38.06 130.205 37.2467 130.205 36.18V34.34C129.819 34.86 129.292 35.3 128.625 35.66C127.972 36.0067 127.225 36.18 126.385 36.18C125.425 36.18 124.545 35.94 123.745 35.46C122.959 34.9667 122.332 34.2867 121.865 33.42C121.412 32.54 121.185 31.5467 121.185 30.44C121.185 29.3333 121.412 28.3533 121.865 27.5C122.332 26.6467 122.959 25.9867 123.745 25.52C124.545 25.04 125.425 24.8 126.385 24.8ZM130.205 30.48C130.205 29.72 130.045 29.06 129.725 28.5C129.419 27.94 129.012 27.5133 128.505 27.22C127.999 26.9267 127.452 26.78 126.865 26.78C126.279 26.78 125.732 26.9267 125.225 27.22C124.719 27.5 124.305 27.92 123.985 28.48C123.679 29.0267 123.525 29.68 123.525 30.44C123.525 31.2 123.679 31.8667 123.985 32.44C124.305 33.0133 124.719 33.4533 125.225 33.76C125.745 34.0533 126.292 34.2 126.865 34.2C127.452 34.2 127.999 34.0533 128.505 33.76C129.012 33.4667 129.419 33.04 129.725 32.48C130.045 31.9067 130.205 31.24 130.205 30.48ZM137.78 21.2V36H135.5V21.2H137.78ZM150.873 30.22C150.873 30.6333 150.847 31.0067 150.793 31.34H142.373C142.44 32.22 142.767 32.9267 143.353 33.46C143.94 33.9933 144.66 34.26 145.513 34.26C146.74 34.26 147.607 33.7467 148.113 32.72H150.573C150.24 33.7333 149.633 34.5667 148.753 35.22C147.887 35.86 146.807 36.18 145.513 36.18C144.46 36.18 143.513 35.9467 142.673 35.48C141.847 35 141.193 34.3333 140.713 33.48C140.247 32.6133 140.013 31.6133 140.013 30.48C140.013 29.3467 140.24 28.3533 140.693 27.5C141.16 26.6333 141.807 25.9667 142.633 25.5C143.473 25.0333 144.433 24.8 145.513 24.8C146.553 24.8 147.48 25.0267 148.293 25.48C149.107 25.9333 149.74 26.5733 150.193 27.4C150.647 28.2133 150.873 29.1533 150.873 30.22ZM148.493 29.5C148.48 28.66 148.18 27.9867 147.593 27.48C147.007 26.9733 146.28 26.72 145.413 26.72C144.627 26.72 143.953 26.9733 143.393 27.48C142.833 27.9733 142.5 28.6467 142.393 29.5H148.493Z" fill="white"/>
<path d="M66.4555 28.154C66.5785 28.813 66.6455 29.502 66.6455 30.221C66.6455 35.845 62.8815 39.844 57.1965 39.844C55.9037 39.8444 54.6234 39.59 53.4289 39.0955C52.2344 38.6009 51.1491 37.8758 50.2349 36.9616C49.3207 36.0475 48.5956 34.9621 48.1011 33.7676C47.6065 32.5731 47.3521 31.2929 47.3525 30C47.3521 28.7072 47.6065 27.4269 48.1011 26.2324C48.5956 25.0379 49.3207 23.9525 50.2349 23.0384C51.1491 22.1242 52.2344 21.3991 53.4289 20.9045C54.6234 20.41 55.9037 20.1556 57.1965 20.156C59.8545 20.156 62.0755 21.134 63.7795 22.722L61.0045 25.497V25.49C59.9715 24.506 58.6605 24.001 57.1965 24.001C53.9485 24.001 51.3085 26.745 51.3085 29.994C51.3085 33.242 53.9485 35.992 57.1965 35.992C60.1435 35.992 62.1495 34.307 62.5615 31.993H57.1965V28.154H66.4565H66.4555Z" fill="white"/>
</svg>
