<svg width="172" height="60" viewBox="0 0 172 60" fill="none" xmlns="http://www.w3.org/2000/svg">
<rect width="172" height="60" rx="30" fill="#FF3D00"/>
<path d="M76.3228 24.8C77.1761 24.8 77.9295 24.9733 78.5828 25.32C79.2495 25.6533 79.7695 26.0733 80.1428 26.58V24.98H82.4428V36.18C82.4428 37.1933 82.2295 38.0933 81.8028 38.88C81.3761 39.68 80.7561 40.3067 79.9428 40.76C79.1428 41.2133 78.1828 41.44 77.0628 41.44C75.5695 41.44 74.3295 41.0867 73.3428 40.38C72.3561 39.6867 71.7961 38.74 71.6628 37.54H73.9228C74.0961 38.1133 74.4628 38.5733 75.0228 38.92C75.5961 39.28 76.2761 39.46 77.0628 39.46C77.9828 39.46 78.7228 39.18 79.2828 38.62C79.8561 38.06 80.1428 37.2467 80.1428 36.18V34.34C79.7561 34.86 79.2295 35.3 78.5628 35.66C77.9095 36.0067 77.1628 36.18 76.3228 36.18C75.3628 36.18 74.4828 35.94 73.6828 35.46C72.8961 34.9667 72.2695 34.2867 71.8028 33.42C71.3495 32.54 71.1228 31.5467 71.1228 30.44C71.1228 29.3333 71.3495 28.3533 71.8028 27.5C72.2695 26.6467 72.8961 25.9867 73.6828 25.52C74.4828 25.04 75.3628 24.8 76.3228 24.8ZM80.1428 30.48C80.1428 29.72 79.9828 29.06 79.6628 28.5C79.3561 27.94 78.9495 27.5133 78.4428 27.22C77.9361 26.9267 77.3895 26.78 76.8028 26.78C76.2161 26.78 75.6695 26.9267 75.1628 27.22C74.6561 27.5 74.2428 27.92 73.9228 28.48C73.6161 29.0267 73.4628 29.68 73.4628 30.44C73.4628 31.2 73.6161 31.8667 73.9228 32.44C74.2428 33.0133 74.6561 33.4533 75.1628 33.76C75.6828 34.0533 76.2295 34.2 76.8028 34.2C77.3895 34.2 77.9361 34.0533 78.4428 33.76C78.9495 33.4667 79.3561 33.04 79.6628 32.48C79.9828 31.9067 80.1428 31.24 80.1428 30.48ZM90.2175 36.18C89.1775 36.18 88.2375 35.9467 87.3975 35.48C86.5575 35 85.8975 34.3333 85.4175 33.48C84.9375 32.6133 84.6975 31.6133 84.6975 30.48C84.6975 29.36 84.9442 28.3667 85.4375 27.5C85.9308 26.6333 86.6042 25.9667 87.4575 25.5C88.3108 25.0333 89.2642 24.8 90.3175 24.8C91.3708 24.8 92.3242 25.0333 93.1775 25.5C94.0308 25.9667 94.7042 26.6333 95.1975 27.5C95.6908 28.3667 95.9375 29.36 95.9375 30.48C95.9375 31.6 95.6842 32.5933 95.1775 33.46C94.6708 34.3267 93.9775 35 93.0975 35.48C92.2308 35.9467 91.2708 36.18 90.2175 36.18ZM90.2175 34.2C90.8042 34.2 91.3508 34.06 91.8575 33.78C92.3775 33.5 92.7975 33.08 93.1175 32.52C93.4375 31.96 93.5975 31.28 93.5975 30.48C93.5975 29.68 93.4442 29.0067 93.1375 28.46C92.8308 27.9 92.4242 27.48 91.9175 27.2C91.4108 26.92 90.8642 26.78 90.2775 26.78C89.6908 26.78 89.1442 26.92 88.6375 27.2C88.1442 27.48 87.7508 27.9 87.4575 28.46C87.1642 29.0067 87.0175 29.68 87.0175 30.48C87.0175 31.6667 87.3175 32.5867 87.9175 33.24C88.5308 33.88 89.2975 34.2 90.2175 34.2ZM102.971 36.18C101.931 36.18 100.991 35.9467 100.151 35.48C99.3114 35 98.6514 34.3333 98.1714 33.48C97.6914 32.6133 97.4514 31.6133 97.4514 30.48C97.4514 29.36 97.6981 28.3667 98.1914 27.5C98.6847 26.6333 99.3581 25.9667 100.211 25.5C101.065 25.0333 102.018 24.8 103.071 24.8C104.125 24.8 105.078 25.0333 105.931 25.5C106.785 25.9667 107.458 26.6333 107.951 27.5C108.445 28.3667 108.691 29.36 108.691 30.48C108.691 31.6 108.438 32.5933 107.931 33.46C107.425 34.3267 106.731 35 105.851 35.48C104.985 35.9467 104.025 36.18 102.971 36.18ZM102.971 34.2C103.558 34.2 104.105 34.06 104.611 33.78C105.131 33.5 105.551 33.08 105.871 32.52C106.191 31.96 106.351 31.28 106.351 30.48C106.351 29.68 106.198 29.0067 105.891 28.46C105.585 27.9 105.178 27.48 104.671 27.2C104.165 26.92 103.618 26.78 103.031 26.78C102.445 26.78 101.898 26.92 101.391 27.2C100.898 27.48 100.505 27.9 100.211 28.46C99.9181 29.0067 99.7714 29.68 99.7714 30.48C99.7714 31.6667 100.071 32.5867 100.671 33.24C101.285 33.88 102.051 34.2 102.971 34.2ZM115.385 24.8C116.239 24.8 116.992 24.9733 117.645 25.32C118.312 25.6533 118.832 26.0733 119.205 26.58V24.98H121.505V36.18C121.505 37.1933 121.292 38.0933 120.865 38.88C120.439 39.68 119.819 40.3067 119.005 40.76C118.205 41.2133 117.245 41.44 116.125 41.44C114.632 41.44 113.392 41.0867 112.405 40.38C111.419 39.6867 110.859 38.74 110.725 37.54H112.985C113.159 38.1133 113.525 38.5733 114.085 38.92C114.659 39.28 115.339 39.46 116.125 39.46C117.045 39.46 117.785 39.18 118.345 38.62C118.919 38.06 119.205 37.2467 119.205 36.18V34.34C118.819 34.86 118.292 35.3 117.625 35.66C116.972 36.0067 116.225 36.18 115.385 36.18C114.425 36.18 113.545 35.94 112.745 35.46C111.959 34.9667 111.332 34.2867 110.865 33.42C110.412 32.54 110.185 31.5467 110.185 30.44C110.185 29.3333 110.412 28.3533 110.865 27.5C111.332 26.6467 111.959 25.9867 112.745 25.52C113.545 25.04 114.425 24.8 115.385 24.8ZM119.205 30.48C119.205 29.72 119.045 29.06 118.725 28.5C118.419 27.94 118.012 27.5133 117.505 27.22C116.999 26.9267 116.452 26.78 115.865 26.78C115.279 26.78 114.732 26.9267 114.225 27.22C113.719 27.5 113.305 27.92 112.985 28.48C112.679 29.0267 112.525 29.68 112.525 30.44C112.525 31.2 112.679 31.8667 112.985 32.44C113.305 33.0133 113.719 33.4533 114.225 33.76C114.745 34.0533 115.292 34.2 115.865 34.2C116.452 34.2 116.999 34.0533 117.505 33.76C118.012 33.4667 118.419 33.04 118.725 32.48C119.045 31.9067 119.205 31.24 119.205 30.48ZM126.78 21.2V36H124.5V21.2H126.78ZM139.873 30.22C139.873 30.6333 139.847 31.0067 139.793 31.34H131.373C131.44 32.22 131.767 32.9267 132.353 33.46C132.94 33.9933 133.66 34.26 134.513 34.26C135.74 34.26 136.607 33.7467 137.113 32.72H139.573C139.24 33.7333 138.633 34.5667 137.753 35.22C136.887 35.86 135.807 36.18 134.513 36.18C133.46 36.18 132.513 35.9467 131.673 35.48C130.847 35 130.193 34.3333 129.713 33.48C129.247 32.6133 129.013 31.6133 129.013 30.48C129.013 29.3467 129.24 28.3533 129.693 27.5C130.16 26.6333 130.807 25.9667 131.633 25.5C132.473 25.0333 133.433 24.8 134.513 24.8C135.553 24.8 136.48 25.0267 137.293 25.48C138.107 25.9333 138.74 26.5733 139.193 27.4C139.647 28.2133 139.873 29.1533 139.873 30.22ZM137.493 29.5C137.48 28.66 137.18 27.9867 136.593 27.48C136.007 26.9733 135.28 26.72 134.413 26.72C133.627 26.72 132.953 26.9733 132.393 27.48C131.833 27.9733 131.5 28.6467 131.393 29.5H137.493Z" fill="white"/>
<path d="M55.4555 28.154C55.5785 28.813 55.6455 29.502 55.6455 30.221C55.6455 35.845 51.8815 39.844 46.1965 39.844C44.9037 39.8444 43.6234 39.59 42.4289 39.0955C41.2344 38.6009 40.1491 37.8758 39.2349 36.9616C38.3207 36.0475 37.5956 34.9621 37.1011 33.7676C36.6065 32.5731 36.3521 31.2929 36.3525 30C36.3521 28.7072 36.6065 27.4269 37.1011 26.2324C37.5956 25.0379 38.3207 23.9525 39.2349 23.0384C40.1491 22.1242 41.2344 21.3991 42.4289 20.9045C43.6234 20.41 44.9037 20.1556 46.1965 20.156C48.8545 20.156 51.0755 21.134 52.7795 22.722L50.0045 25.497V25.49C48.9715 24.506 47.6605 24.001 46.1965 24.001C42.9485 24.001 40.3085 26.745 40.3085 29.994C40.3085 33.242 42.9485 35.992 46.1965 35.992C49.1435 35.992 51.1495 34.307 51.5615 31.993H46.1965V28.154H55.4565H55.4555Z" fill="white"/>
</svg>
