<svg width="196" height="60" viewBox="0 0 196 60" fill="none" xmlns="http://www.w3.org/2000/svg">
<rect width="196" height="60" rx="30" fill="#395185"/>
<path d="M77.286 27.84H75.246V37H72.946V27.84H71.646V25.98H72.946V25.2C72.946 23.9333 73.2793 23.0133 73.946 22.44C74.626 21.8533 75.686 21.56 77.126 21.56V23.46C76.4327 23.46 75.946 23.5933 75.666 23.86C75.386 24.1133 75.246 24.56 75.246 25.2V25.98H77.286V27.84ZM78.5466 31.44C78.5466 30.3333 78.7733 29.3533 79.2266 28.5C79.6933 27.6467 80.32 26.9867 81.1066 26.52C81.9066 26.04 82.7866 25.8 83.7466 25.8C84.6133 25.8 85.3666 25.9733 86.0066 26.32C86.66 26.6533 87.18 27.0733 87.5666 27.58V25.98H89.8666V37H87.5666V35.36C87.18 35.88 86.6533 36.3133 85.9866 36.66C85.32 37.0067 84.56 37.18 83.7066 37.18C82.76 37.18 81.8933 36.94 81.1066 36.46C80.32 35.9667 79.6933 35.2867 79.2266 34.42C78.7733 33.54 78.5466 32.5467 78.5466 31.44ZM87.5666 31.48C87.5666 30.72 87.4066 30.06 87.0866 29.5C86.78 28.94 86.3733 28.5133 85.8666 28.22C85.36 27.9267 84.8133 27.78 84.2266 27.78C83.64 27.78 83.0933 27.9267 82.5866 28.22C82.08 28.5 81.6666 28.92 81.3466 29.48C81.04 30.0267 80.8866 30.68 80.8866 31.44C80.8866 32.2 81.04 32.8667 81.3466 33.44C81.6666 34.0133 82.08 34.4533 82.5866 34.76C83.1066 35.0533 83.6533 35.2 84.2266 35.2C84.8133 35.2 85.36 35.0533 85.8666 34.76C86.3733 34.4667 86.78 34.04 87.0866 33.48C87.4066 32.9067 87.5666 32.24 87.5666 31.48ZM92.1013 31.48C92.1013 30.3467 92.328 29.3533 92.7813 28.5C93.248 27.6333 93.888 26.9667 94.7013 26.5C95.5147 26.0333 96.448 25.8 97.5013 25.8C98.8347 25.8 99.9347 26.12 100.801 26.76C101.681 27.3867 102.275 28.2867 102.581 29.46H100.121C99.9213 28.9133 99.6013 28.4867 99.1613 28.18C98.7213 27.8733 98.168 27.72 97.5013 27.72C96.568 27.72 95.8213 28.0533 95.2613 28.72C94.7147 29.3733 94.4413 30.2933 94.4413 31.48C94.4413 32.6667 94.7147 33.5933 95.2613 34.26C95.8213 34.9267 96.568 35.26 97.5013 35.26C98.8213 35.26 99.6947 34.68 100.121 33.52H102.581C102.261 34.64 101.661 35.5333 100.781 36.2C99.9013 36.8533 98.808 37.18 97.5013 37.18C96.448 37.18 95.5147 36.9467 94.7013 36.48C93.888 36 93.248 35.3333 92.7813 34.48C92.328 33.6133 92.1013 32.6133 92.1013 31.48ZM114.954 31.22C114.954 31.6333 114.927 32.0067 114.874 32.34H106.454C106.52 33.22 106.847 33.9267 107.434 34.46C108.02 34.9933 108.74 35.26 109.594 35.26C110.82 35.26 111.687 34.7467 112.194 33.72H114.654C114.32 34.7333 113.714 35.5667 112.834 36.22C111.967 36.86 110.887 37.18 109.594 37.18C108.54 37.18 107.594 36.9467 106.754 36.48C105.927 36 105.274 35.3333 104.794 34.48C104.327 33.6133 104.094 32.6133 104.094 31.48C104.094 30.3467 104.32 29.3533 104.774 28.5C105.24 27.6333 105.887 26.9667 106.714 26.5C107.554 26.0333 108.514 25.8 109.594 25.8C110.634 25.8 111.56 26.0267 112.374 26.48C113.187 26.9333 113.82 27.5733 114.274 28.4C114.727 29.2133 114.954 30.1533 114.954 31.22ZM112.574 30.5C112.56 29.66 112.26 28.9867 111.674 28.48C111.087 27.9733 110.36 27.72 109.494 27.72C108.707 27.72 108.034 27.9733 107.474 28.48C106.914 28.9733 106.58 29.6467 106.474 30.5H112.574ZM119.477 27.62C119.864 27.0867 120.391 26.6533 121.057 26.32C121.737 25.9733 122.491 25.8 123.317 25.8C124.291 25.8 125.171 26.0333 125.957 26.5C126.744 26.9667 127.364 27.6333 127.817 28.5C128.271 29.3533 128.497 30.3333 128.497 31.44C128.497 32.5467 128.271 33.54 127.817 34.42C127.364 35.2867 126.737 35.9667 125.937 36.46C125.151 36.94 124.277 37.18 123.317 37.18C122.464 37.18 121.704 37.0133 121.037 36.68C120.384 36.3467 119.864 35.92 119.477 35.4V37H117.197V22.2H119.477V27.62ZM126.177 31.44C126.177 30.68 126.017 30.0267 125.697 29.48C125.391 28.92 124.977 28.5 124.457 28.22C123.951 27.9267 123.404 27.78 122.817 27.78C122.244 27.78 121.697 27.9267 121.177 28.22C120.671 28.5133 120.257 28.94 119.937 29.5C119.631 30.06 119.477 30.72 119.477 31.48C119.477 32.24 119.631 32.9067 119.937 33.48C120.257 34.04 120.671 34.4667 121.177 34.76C121.697 35.0533 122.244 35.2 122.817 35.2C123.404 35.2 123.951 35.0533 124.457 34.76C124.977 34.4533 125.391 34.0133 125.697 33.44C126.017 32.8667 126.177 32.2 126.177 31.44ZM135.532 37.18C134.492 37.18 133.552 36.9467 132.712 36.48C131.872 36 131.212 35.3333 130.732 34.48C130.252 33.6133 130.012 32.6133 130.012 31.48C130.012 30.36 130.259 29.3667 130.752 28.5C131.245 27.6333 131.919 26.9667 132.772 26.5C133.625 26.0333 134.579 25.8 135.632 25.8C136.685 25.8 137.639 26.0333 138.492 26.5C139.345 26.9667 140.019 27.6333 140.512 28.5C141.005 29.3667 141.252 30.36 141.252 31.48C141.252 32.6 140.999 33.5933 140.492 34.46C139.985 35.3267 139.292 36 138.412 36.48C137.545 36.9467 136.585 37.18 135.532 37.18ZM135.532 35.2C136.119 35.2 136.665 35.06 137.172 34.78C137.692 34.5 138.112 34.08 138.432 33.52C138.752 32.96 138.912 32.28 138.912 31.48C138.912 30.68 138.759 30.0067 138.452 29.46C138.145 28.9 137.739 28.48 137.232 28.2C136.725 27.92 136.179 27.78 135.592 27.78C135.005 27.78 134.459 27.92 133.952 28.2C133.459 28.48 133.065 28.9 132.772 29.46C132.479 30.0067 132.332 30.68 132.332 31.48C132.332 32.6667 132.632 33.5867 133.232 34.24C133.845 34.88 134.612 35.2 135.532 35.2ZM148.286 37.18C147.246 37.18 146.306 36.9467 145.466 36.48C144.626 36 143.966 35.3333 143.486 34.48C143.006 33.6133 142.766 32.6133 142.766 31.48C142.766 30.36 143.013 29.3667 143.506 28.5C143.999 27.6333 144.673 26.9667 145.526 26.5C146.379 26.0333 147.333 25.8 148.386 25.8C149.439 25.8 150.393 26.0333 151.246 26.5C152.099 26.9667 152.773 27.6333 153.266 28.5C153.759 29.3667 154.006 30.36 154.006 31.48C154.006 32.6 153.753 33.5933 153.246 34.46C152.739 35.3267 152.046 36 151.166 36.48C150.299 36.9467 149.339 37.18 148.286 37.18ZM148.286 35.2C148.873 35.2 149.419 35.06 149.926 34.78C150.446 34.5 150.866 34.08 151.186 33.52C151.506 32.96 151.666 32.28 151.666 31.48C151.666 30.68 151.513 30.0067 151.206 29.46C150.899 28.9 150.493 28.48 149.986 28.2C149.479 27.92 148.933 27.78 148.346 27.78C147.759 27.78 147.213 27.92 146.706 28.2C146.213 28.48 145.819 28.9 145.526 29.46C145.233 30.0067 145.086 30.68 145.086 31.48C145.086 32.6667 145.386 33.5867 145.986 34.24C146.599 34.88 147.366 35.2 148.286 35.2ZM160.62 31.5L165.7 37H162.62L158.54 32.26V37H156.26V22.2H158.54V30.8L162.54 25.98H165.7L160.62 31.5Z" fill="white"/>
<path d="M35.002 30.002C35.0025 32.3833 35.8524 34.6864 37.3989 36.4972C38.9454 38.308 41.0871 39.5078 43.439 39.881V32.892H40.902V30.002H43.442V27.802C43.3859 27.2871 43.4438 26.7662 43.6118 26.2762C43.7797 25.7862 44.0535 25.3392 44.4136 24.967C44.7737 24.5947 45.2114 24.3063 45.6956 24.1222C46.1797 23.9382 46.6985 23.863 47.215 23.902C47.965 23.914 48.715 23.981 49.455 24.102V26.561H48.191C47.9761 26.5329 47.7577 26.5534 47.5519 26.621C47.346 26.6886 47.158 26.8016 47.0017 26.9517C46.8454 27.1017 46.7249 27.285 46.6489 27.4879C46.573 27.6908 46.5436 27.9082 46.563 28.124V30.002H49.334L48.891 32.893H46.563V39.881C48.4506 39.5827 50.2132 38.7498 51.6421 37.4808C53.071 36.2118 54.1064 34.56 54.6257 32.7208C55.145 30.8817 55.1264 28.9323 54.5721 27.1034C54.0179 25.2744 52.9512 23.6427 51.4983 22.4012C50.0455 21.1597 48.2673 20.3605 46.3743 20.0982C44.4814 19.836 42.5529 20.1216 40.8172 20.9213C39.0815 21.721 37.6114 23.0014 36.5808 24.6107C35.5501 26.22 35.0023 28.091 35.002 30.002V30.002Z" fill="white"/>
</svg>
