<svg width="196" height="60" viewBox="0 0 196 60" fill="none" xmlns="http://www.w3.org/2000/svg">
<rect width="196" height="60" rx="30" fill="#0A66C2"/>
<path d="M80.8952 22.2V37H78.6152V22.2H80.8952ZM85.0487 24.52C84.6353 24.52 84.2887 24.38 84.0087 24.1C83.7287 23.82 83.5887 23.4733 83.5887 23.06C83.5887 22.6467 83.7287 22.3 84.0087 22.02C84.2887 21.74 84.6353 21.6 85.0487 21.6C85.4487 21.6 85.7887 21.74 86.0687 22.02C86.3487 22.3 86.4887 22.6467 86.4887 23.06C86.4887 23.4733 86.3487 23.82 86.0687 24.1C85.7887 24.38 85.4487 24.52 85.0487 24.52ZM86.1687 25.98V37H83.8887V25.98H86.1687ZM94.7221 25.8C95.5888 25.8 96.3621 25.98 97.0421 26.34C97.7354 26.7 98.2754 27.2333 98.6621 27.94C99.0488 28.6467 99.2421 29.5 99.2421 30.5V37H96.9821V30.84C96.9821 29.8533 96.7354 29.1 96.2421 28.58C95.7488 28.0467 95.0754 27.78 94.2221 27.78C93.3688 27.78 92.6888 28.0467 92.1821 28.58C91.6888 29.1 91.4421 29.8533 91.4421 30.84V37H89.1621V25.98H91.4421V27.24C91.8154 26.7867 92.2888 26.4333 92.8621 26.18C93.4488 25.9267 94.0688 25.8 94.7221 25.8ZM106.51 31.5L111.59 37H108.51L104.43 32.26V37H102.15V22.2H104.43V30.8L108.43 25.98H111.59L106.51 31.5ZM123.325 31.22C123.325 31.6333 123.298 32.0067 123.245 32.34H114.825C114.891 33.22 115.218 33.9267 115.805 34.46C116.391 34.9933 117.111 35.26 117.965 35.26C119.191 35.26 120.058 34.7467 120.565 33.72H123.025C122.691 34.7333 122.085 35.5667 121.205 36.22C120.338 36.86 119.258 37.18 117.965 37.18C116.911 37.18 115.965 36.9467 115.125 36.48C114.298 36 113.645 35.3333 113.165 34.48C112.698 33.6133 112.465 32.6133 112.465 31.48C112.465 30.3467 112.691 29.3533 113.145 28.5C113.611 27.6333 114.258 26.9667 115.085 26.5C115.925 26.0333 116.885 25.8 117.965 25.8C119.005 25.8 119.931 26.0267 120.745 26.48C121.558 26.9333 122.191 27.5733 122.645 28.4C123.098 29.2133 123.325 30.1533 123.325 31.22ZM120.945 30.5C120.931 29.66 120.631 28.9867 120.045 28.48C119.458 27.9733 118.731 27.72 117.865 27.72C117.078 27.72 116.405 27.9733 115.845 28.48C115.285 28.9733 114.951 29.6467 114.845 30.5H120.945ZM124.808 31.44C124.808 30.3333 125.035 29.3533 125.488 28.5C125.955 27.6467 126.582 26.9867 127.368 26.52C128.168 26.04 129.055 25.8 130.028 25.8C130.748 25.8 131.455 25.96 132.148 26.28C132.855 26.5867 133.415 27 133.828 27.52V22.2H136.128V37H133.828V35.34C133.455 35.8733 132.935 36.3133 132.268 36.66C131.615 37.0067 130.862 37.18 130.008 37.18C129.048 37.18 128.168 36.94 127.368 36.46C126.582 35.9667 125.955 35.2867 125.488 34.42C125.035 33.54 124.808 32.5467 124.808 31.44ZM133.828 31.48C133.828 30.72 133.668 30.06 133.348 29.5C133.042 28.94 132.635 28.5133 132.128 28.22C131.622 27.9267 131.075 27.78 130.488 27.78C129.902 27.78 129.355 27.9267 128.848 28.22C128.342 28.5 127.928 28.92 127.608 29.48C127.302 30.0267 127.148 30.68 127.148 31.44C127.148 32.2 127.302 32.8667 127.608 33.44C127.928 34.0133 128.342 34.4533 128.848 34.76C129.368 35.0533 129.915 35.2 130.488 35.2C131.075 35.2 131.622 35.0533 132.128 34.76C132.635 34.4667 133.042 34.04 133.348 33.48C133.668 32.9067 133.828 32.24 133.828 31.48ZM140.283 24.52C139.87 24.52 139.523 24.38 139.243 24.1C138.963 23.82 138.823 23.4733 138.823 23.06C138.823 22.6467 138.963 22.3 139.243 22.02C139.523 21.74 139.87 21.6 140.283 21.6C140.683 21.6 141.023 21.74 141.303 22.02C141.583 22.3 141.723 22.6467 141.723 23.06C141.723 23.4733 141.583 23.82 141.303 24.1C141.023 24.38 140.683 24.52 140.283 24.52ZM141.403 25.98V37H139.123V25.98H141.403ZM149.956 25.8C150.823 25.8 151.596 25.98 152.276 26.34C152.97 26.7 153.51 27.2333 153.896 27.94C154.283 28.6467 154.476 29.5 154.476 30.5V37H152.216V30.84C152.216 29.8533 151.97 29.1 151.476 28.58C150.983 28.0467 150.31 27.78 149.456 27.78C148.603 27.78 147.923 28.0467 147.416 28.58C146.923 29.1 146.676 29.8533 146.676 30.84V37H144.396V25.98H146.676V27.24C147.05 26.7867 147.523 26.4333 148.096 26.18C148.683 25.9267 149.303 25.8 149.956 25.8Z" fill="white"/>
<path d="M52.0005 18.48C45.6381 18.48 40.4805 23.6376 40.4805 30C40.4805 36.3624 45.6381 41.52 52.0005 41.52C58.3629 41.52 63.5205 36.3624 63.5205 30C63.5205 23.6376 58.3629 18.48 52.0005 18.48ZM49.1805 34.7748H46.8477V27.2676H49.1805V34.7748ZM47.9997 26.346C47.2629 26.346 46.7865 25.824 46.7865 25.1784C46.7865 24.5196 47.2773 24.0132 48.0297 24.0132C48.7821 24.0132 49.2429 24.5196 49.2573 25.1784C49.2573 25.824 48.7821 26.346 47.9997 26.346ZM57.7005 34.7748H55.3677V30.6144C55.3677 29.646 55.0293 28.9884 54.1857 28.9884C53.5413 28.9884 53.1585 29.4336 52.9893 29.862C52.9269 30.0144 52.9113 30.2304 52.9113 30.4452V34.7736H50.5773V29.6616C50.5773 28.7244 50.5473 27.9408 50.5161 27.2664H52.5429L52.6497 28.3092H52.6965C53.0037 27.8196 53.7561 27.0972 55.0149 27.0972C56.5497 27.0972 57.7005 28.1256 57.7005 30.336V34.7748V34.7748Z" fill="white"/>
</svg>
