<svg width="186" height="60" viewBox="0 0 186 60" fill="none" xmlns="http://www.w3.org/2000/svg">
<rect width="186" height="60" rx="30" fill="#0A66C2"/>
<path d="M74.8952 22.2V37H72.6152V22.2H74.8952ZM79.0487 24.52C78.6353 24.52 78.2887 24.38 78.0087 24.1C77.7287 23.82 77.5887 23.4733 77.5887 23.06C77.5887 22.6467 77.7287 22.3 78.0087 22.02C78.2887 21.74 78.6353 21.6 79.0487 21.6C79.4487 21.6 79.7887 21.74 80.0687 22.02C80.3487 22.3 80.4887 22.6467 80.4887 23.06C80.4887 23.4733 80.3487 23.82 80.0687 24.1C79.7887 24.38 79.4487 24.52 79.0487 24.52ZM80.1687 25.98V37H77.8887V25.98H80.1687ZM88.7221 25.8C89.5888 25.8 90.3621 25.98 91.0421 26.34C91.7354 26.7 92.2754 27.2333 92.6621 27.94C93.0488 28.6467 93.2421 29.5 93.2421 30.5V37H90.9821V30.84C90.9821 29.8533 90.7354 29.1 90.2421 28.58C89.7488 28.0467 89.0754 27.78 88.2221 27.78C87.3688 27.78 86.6888 28.0467 86.1821 28.58C85.6888 29.1 85.4421 29.8533 85.4421 30.84V37H83.1621V25.98H85.4421V27.24C85.8154 26.7867 86.2888 26.4333 86.8621 26.18C87.4488 25.9267 88.0688 25.8 88.7221 25.8ZM100.51 31.5L105.59 37H102.51L98.4304 32.26V37H96.1504V22.2H98.4304V30.8L102.43 25.98H105.59L100.51 31.5ZM117.325 31.22C117.325 31.6333 117.298 32.0067 117.245 32.34H108.825C108.891 33.22 109.218 33.9267 109.805 34.46C110.391 34.9933 111.111 35.26 111.965 35.26C113.191 35.26 114.058 34.7467 114.565 33.72H117.025C116.691 34.7333 116.085 35.5667 115.205 36.22C114.338 36.86 113.258 37.18 111.965 37.18C110.911 37.18 109.965 36.9467 109.125 36.48C108.298 36 107.645 35.3333 107.165 34.48C106.698 33.6133 106.465 32.6133 106.465 31.48C106.465 30.3467 106.691 29.3533 107.145 28.5C107.611 27.6333 108.258 26.9667 109.085 26.5C109.925 26.0333 110.885 25.8 111.965 25.8C113.005 25.8 113.931 26.0267 114.745 26.48C115.558 26.9333 116.191 27.5733 116.645 28.4C117.098 29.2133 117.325 30.1533 117.325 31.22ZM114.945 30.5C114.931 29.66 114.631 28.9867 114.045 28.48C113.458 27.9733 112.731 27.72 111.865 27.72C111.078 27.72 110.405 27.9733 109.845 28.48C109.285 28.9733 108.951 29.6467 108.845 30.5H114.945ZM118.808 31.44C118.808 30.3333 119.035 29.3533 119.488 28.5C119.955 27.6467 120.582 26.9867 121.368 26.52C122.168 26.04 123.055 25.8 124.028 25.8C124.748 25.8 125.455 25.96 126.148 26.28C126.855 26.5867 127.415 27 127.828 27.52V22.2H130.128V37H127.828V35.34C127.455 35.8733 126.935 36.3133 126.268 36.66C125.615 37.0067 124.862 37.18 124.008 37.18C123.048 37.18 122.168 36.94 121.368 36.46C120.582 35.9667 119.955 35.2867 119.488 34.42C119.035 33.54 118.808 32.5467 118.808 31.44ZM127.828 31.48C127.828 30.72 127.668 30.06 127.348 29.5C127.042 28.94 126.635 28.5133 126.128 28.22C125.622 27.9267 125.075 27.78 124.488 27.78C123.902 27.78 123.355 27.9267 122.848 28.22C122.342 28.5 121.928 28.92 121.608 29.48C121.302 30.0267 121.148 30.68 121.148 31.44C121.148 32.2 121.302 32.8667 121.608 33.44C121.928 34.0133 122.342 34.4533 122.848 34.76C123.368 35.0533 123.915 35.2 124.488 35.2C125.075 35.2 125.622 35.0533 126.128 34.76C126.635 34.4667 127.042 34.04 127.348 33.48C127.668 32.9067 127.828 32.24 127.828 31.48ZM134.283 24.52C133.87 24.52 133.523 24.38 133.243 24.1C132.963 23.82 132.823 23.4733 132.823 23.06C132.823 22.6467 132.963 22.3 133.243 22.02C133.523 21.74 133.87 21.6 134.283 21.6C134.683 21.6 135.023 21.74 135.303 22.02C135.583 22.3 135.723 22.6467 135.723 23.06C135.723 23.4733 135.583 23.82 135.303 24.1C135.023 24.38 134.683 24.52 134.283 24.52ZM135.403 25.98V37H133.123V25.98H135.403ZM143.956 25.8C144.823 25.8 145.596 25.98 146.276 26.34C146.97 26.7 147.51 27.2333 147.896 27.94C148.283 28.6467 148.476 29.5 148.476 30.5V37H146.216V30.84C146.216 29.8533 145.97 29.1 145.476 28.58C144.983 28.0467 144.31 27.78 143.456 27.78C142.603 27.78 141.923 28.0467 141.416 28.58C140.923 29.1 140.676 29.8533 140.676 30.84V37H138.396V25.98H140.676V27.24C141.05 26.7867 141.523 26.4333 142.096 26.18C142.683 25.9267 143.303 25.8 143.956 25.8Z" fill="white"/>
<path d="M46.0005 18.48C39.6381 18.48 34.4805 23.6376 34.4805 30C34.4805 36.3624 39.6381 41.52 46.0005 41.52C52.3629 41.52 57.5205 36.3624 57.5205 30C57.5205 23.6376 52.3629 18.48 46.0005 18.48ZM43.1805 34.7748H40.8477V27.2676H43.1805V34.7748ZM41.9997 26.346C41.2629 26.346 40.7865 25.824 40.7865 25.1784C40.7865 24.5196 41.2773 24.0132 42.0297 24.0132C42.7821 24.0132 43.2429 24.5196 43.2573 25.1784C43.2573 25.824 42.7821 26.346 41.9997 26.346ZM51.7005 34.7748H49.3677V30.6144C49.3677 29.646 49.0293 28.9884 48.1857 28.9884C47.5413 28.9884 47.1585 29.4336 46.9893 29.862C46.9269 30.0144 46.9113 30.2304 46.9113 30.4452V34.7736H44.5773V29.6616C44.5773 28.7244 44.5473 27.9408 44.5161 27.2664H46.5429L46.6497 28.3092H46.6965C47.0037 27.8196 47.7561 27.0972 49.0149 27.0972C50.5497 27.0972 51.7005 28.1256 51.7005 30.336V34.7748V34.7748Z" fill="white"/>
</svg>
