<svg width="91" height="91" viewBox="0 0 91 91" fill="none" xmlns="http://www.w3.org/2000/svg">
<rect width="91" height="91" rx="14" fill="#FFF2E9"/>
<path d="M23.6665 31.3334C23.6665 31.3334 31.6665 44.6667 44.9998 44.6667C58.3332 44.6667 66.3332 31.3334 66.3332 31.3334" stroke="#FF7C24" stroke-width="4" stroke-linejoin="round"/>
<path d="M66.3332 27.3334V64.6667M23.6665 27.3334V64.6667V27.3334Z" stroke="#FF7C24" stroke-width="4" stroke-linecap="round" stroke-linejoin="round"/>
<path d="M71.6666 38L66.3333 31.3334M18.3333 54.6667C18.3333 54.6667 34.5839 53.8707 44.9999 54C55.4266 54.1307 71.6666 55.3334 71.6666 55.3334L18.3333 54.6667ZM34.3333 42V54V42ZM44.9999 44.6667V54V44.6667ZM55.6666 42V54V42ZM23.6666 31.3334L18.3333 38L23.6666 31.3334Z" stroke="#FF7C24" stroke-width="4" stroke-linecap="round" stroke-linejoin="round"/>
</svg>
