<svg width="50" height="50" viewBox="0 0 50 50" fill="none" xmlns="http://www.w3.org/2000/svg">
<circle cx="25" cy="25" r="25" fill="#395185"/>
<path d="M16.6685 25.0017C16.6689 26.9861 17.3772 28.9053 18.6659 30.4143C19.9547 31.9233 21.7394 32.9232 23.6993 33.2342V27.41H21.5851V25.0017H23.7018V23.1684C23.6551 22.7393 23.7034 22.3051 23.8433 21.8968C23.9832 21.4885 24.2114 21.116 24.5115 20.8058C24.8116 20.4956 25.1763 20.2553 25.5798 20.1019C25.9833 19.9485 26.4156 19.8858 26.846 19.9184C27.471 19.9284 28.096 19.9842 28.7126 20.085V22.1342H27.6593C27.4803 22.1107 27.2983 22.1278 27.1267 22.1842C26.9552 22.2405 26.7985 22.3347 26.6683 22.4597C26.538 22.5848 26.4375 22.7375 26.3743 22.9066C26.311 23.0757 26.2865 23.2569 26.3026 23.4367V25.0017H28.6118L28.2426 27.4109H26.3026V33.2342C27.8756 32.9856 29.3445 32.2915 30.5353 31.234C31.726 30.1765 32.5889 28.8 33.0216 27.2674C33.4543 25.7348 33.4388 24.1102 32.9769 22.5861C32.5151 21.062 31.6262 19.7022 30.4154 18.6676C29.2047 17.6331 27.7229 16.9671 26.1454 16.7485C24.568 16.53 22.9609 16.768 21.5145 17.4344C20.0681 18.1009 18.843 19.1678 17.9841 20.5089C17.1253 21.85 16.6687 23.4092 16.6685 25.0017Z" fill="white"/>
</svg>
