<svg width="32" height="32" viewBox="0 0 32 32" fill="none" xmlns="http://www.w3.org/2000/svg">
<path d="M21.8133 18.6667C21.92 17.7867 22 16.9067 22 16C22 15.0933 21.92 14.2133 21.8133 13.3333H26.32C26.5333 14.1867 26.6667 15.08 26.6667 16C26.6667 16.92 26.5333 17.8133 26.32 18.6667H21.8133ZM19.4533 26.08C20.2533 24.6 20.8667 23 21.2933 21.3333H25.2267C23.9349 23.5577 21.8855 25.2427 19.4533 26.08ZM19.12 18.6667H12.88C12.7467 17.7867 12.6667 16.9067 12.6667 16C12.6667 15.0933 12.7467 14.2 12.88 13.3333H19.12C19.24 14.2 19.3333 15.0933 19.3333 16C19.3333 16.9067 19.24 17.7867 19.12 18.6667ZM16 26.6133C14.8933 25.0133 14 23.24 13.4533 21.3333H18.5467C18 23.24 17.1067 25.0133 16 26.6133ZM10.6667 10.6667H6.77333C8.05181 8.43628 10.0997 6.74864 12.5333 5.91999C11.7333 7.39999 11.1333 8.99999 10.6667 10.6667ZM6.77333 21.3333H10.6667C11.1333 23 11.7333 24.6 12.5333 26.08C10.1048 25.2422 8.0598 23.5569 6.77333 21.3333ZM5.68 18.6667C5.46667 17.8133 5.33333 16.92 5.33333 16C5.33333 15.08 5.46667 14.1867 5.68 13.3333H10.1867C10.08 14.2133 10 15.0933 10 16C10 16.9067 10.08 17.7867 10.1867 18.6667H5.68ZM16 5.37332C17.1067 6.97332 18 8.75999 18.5467 10.6667H13.4533C14 8.75999 14.8933 6.97332 16 5.37332ZM25.2267 10.6667H21.2933C20.876 9.01527 20.2581 7.42118 19.4533 5.91999C21.9067 6.75999 23.9467 8.45332 25.2267 10.6667ZM16 2.66666C8.62667 2.66666 2.66667 8.66666 2.66667 16C2.66667 19.5362 4.07142 22.9276 6.57191 25.4281C7.81002 26.6662 9.27988 27.6483 10.8976 28.3184C12.5152 28.9884 14.249 29.3333 16 29.3333C19.5362 29.3333 22.9276 27.9286 25.4281 25.4281C27.9286 22.9276 29.3333 19.5362 29.3333 16C29.3333 14.249 28.9885 12.5152 28.3184 10.8975C27.6483 9.27987 26.6662 7.81001 25.4281 6.5719C24.19 5.33379 22.7201 4.35166 21.1024 3.6816C19.4848 3.01153 17.751 2.66666 16 2.66666Z" fill="#FF7C24"/>
</svg>
