<svg width="50" height="50" viewBox="0 0 50 50" fill="none" xmlns="http://www.w3.org/2000/svg">
<circle cx="25" cy="25" r="25" fill="#FF3D00"/>
<path d="M32.8801 23.4616C32.9826 24.0108 33.0384 24.585 33.0384 25.1841C33.0384 29.8708 29.9018 33.2033 25.1643 33.2033C24.0869 33.2036 23.02 32.9917 22.0246 32.5795C21.0292 32.1674 20.1247 31.5631 19.3629 30.8013C18.6011 30.0395 17.9969 29.1351 17.5847 28.1396C17.1726 27.1442 16.9606 26.0773 16.9609 25C16.9606 23.9226 17.1726 22.8557 17.5847 21.8603C17.9969 20.8649 18.6011 19.9604 19.3629 19.1986C20.1247 18.4368 21.0292 17.8325 22.0246 17.4204C23.02 17.0083 24.0869 16.7963 25.1643 16.7966C27.3793 16.7966 29.2301 17.6116 30.6501 18.935L28.3376 21.2475V21.2416C27.4768 20.4216 26.3843 20.0008 25.1643 20.0008C22.4576 20.0008 20.2576 22.2875 20.2576 24.995C20.2576 27.7016 22.4576 29.9933 25.1643 29.9933C27.6201 29.9933 29.2918 28.5891 29.6351 26.6608H25.1643V23.4616H32.8809H32.8801Z" fill="white"/>
</svg>
