<svg width="50" height="50" viewBox="0 0 50 50" fill="none" xmlns="http://www.w3.org/2000/svg">
<circle cx="25" cy="25" r="25" fill="#0A66C2"/>
<path d="M24.9999 15.3999C19.6979 15.3999 15.3999 19.6979 15.3999 24.9999C15.3999 30.3019 19.6979 34.5999 24.9999 34.5999C30.3019 34.5999 34.5999 30.3019 34.5999 24.9999C34.5999 19.6979 30.3019 15.3999 24.9999 15.3999ZM22.6499 28.9789H20.7059V22.7229H22.6499V28.9789ZM21.6659 21.9549C21.0519 21.9549 20.6549 21.5199 20.6549 20.9819C20.6549 20.4329 21.0639 20.0109 21.6909 20.0109C22.3179 20.0109 22.7019 20.4329 22.7139 20.9819C22.7139 21.5199 22.3179 21.9549 21.6659 21.9549ZM29.7499 28.9789H27.8059V25.5119C27.8059 24.7049 27.5239 24.1569 26.8209 24.1569C26.2839 24.1569 25.9649 24.5279 25.8239 24.8849C25.7719 25.0119 25.7589 25.1919 25.7589 25.3709V28.9779H23.8139V24.7179C23.8139 23.9369 23.7889 23.2839 23.7629 22.7219H25.4519L25.5409 23.5909H25.5799C25.8359 23.1829 26.4629 22.5809 27.5119 22.5809C28.7909 22.5809 29.7499 23.4379 29.7499 25.2799V28.9789Z" fill="white"/>
</svg>
