<svg width="44" height="44" viewBox="0 0 44 44" fill="none" xmlns="http://www.w3.org/2000/svg">
<rect width="44" height="44" rx="22" fill="#00C77F" fill-opacity="0.05"/>
<path d="M33.5895 13.7172C33.5732 13.4423 33.4567 13.1829 33.2619 12.9882C33.0672 12.7934 32.8078 12.6769 32.5329 12.6606C27.5379 12.3663 23.5142 13.9141 21.7667 16.7988C20.6286 18.6738 20.5892 20.9397 21.6298 23.1081C21.1847 23.6756 20.8293 24.3079 20.5761 24.9831L19.6667 24.0738C20.3407 22.5016 20.2695 20.8759 19.4417 19.5091C18.1311 17.3463 15.1461 16.1875 11.4579 16.4013C11.183 16.4175 10.9236 16.5341 10.7289 16.7288C10.5342 16.9235 10.4176 17.1829 10.4014 17.4578C10.1876 21.1459 11.3464 24.1309 13.5111 25.4416C14.2452 25.889 15.0888 26.1249 15.9486 26.1231C16.6816 26.1171 17.4057 25.9618 18.0767 25.6666L20.1251 27.7188V30.25C20.1251 30.5484 20.2436 30.8345 20.4546 31.0455C20.6656 31.2565 20.9517 31.375 21.2501 31.375C21.5485 31.375 21.8346 31.2565 22.0456 31.0455C22.2566 30.8345 22.3751 30.5484 22.3751 30.25V27.4853C22.3728 26.4797 22.6838 25.4983 23.2648 24.6775C24.2054 25.1248 25.2318 25.3628 26.2732 25.375C27.3941 25.3777 28.4939 25.0708 29.4514 24.4881C32.3361 22.7359 33.8839 18.7113 33.5895 13.7172ZM14.6764 23.5169C13.4398 22.7669 12.6907 20.9425 12.6298 18.6297C14.9426 18.6906 16.7679 19.4406 17.517 20.6763C17.8099 21.1527 17.9301 21.7154 17.8573 22.27L16.7951 21.2041C16.5838 20.9927 16.2971 20.874 15.9982 20.874C15.6994 20.874 15.4127 20.9927 15.2014 21.2041C14.99 21.4154 14.8713 21.7021 14.8713 22.0009C14.8713 22.2998 14.99 22.5865 15.2014 22.7978L16.2645 23.8609C15.7114 23.9292 15.1516 23.8079 14.6764 23.5169ZM28.2861 22.5625C27.2867 23.1672 26.1298 23.2816 24.9289 22.915L28.4211 19.4238C28.6324 19.2124 28.7511 18.9258 28.7511 18.6269C28.7511 18.328 28.6324 18.0414 28.4211 17.83C28.2097 17.6187 27.9231 17.4999 27.6242 17.4999C27.3253 17.4999 27.0386 17.6187 26.8273 17.83L23.3351 21.3213C22.9723 20.125 23.0867 18.9634 23.6876 17.9688C24.8848 15.9916 27.7189 14.8684 31.3751 14.875C31.3882 18.5313 30.2632 21.3606 28.2861 22.5625Z" fill="#00C77F"/>
</svg>
