<svg width="121" height="120" viewBox="0 0 121 120" fill="none" xmlns="http://www.w3.org/2000/svg">
<path fill-rule="evenodd" clip-rule="evenodd" d="M68.323 10.4787C70.5258 10.8309 71.9359 9.59017 72.1668 8.14598C72.4947 6.09525 70.9379 5.38663 69.5209 4.74162C68.3372 4.20287 67.2511 3.70849 67.4422 2.51343C67.6171 1.41935 68.5687 0.988032 69.6581 1.19213C70.8958 1.40496 71.414 2.28073 71.3919 2.98035L72.8507 3.21357C72.9374 1.64162 71.8386 0.373803 69.8984 0.0636115C67.8853 -0.258241 66.3467 0.662704 66.0785 2.3403C65.7523 4.3804 67.2873 5.0649 68.6997 5.69469C69.9029 6.23125 71.0171 6.72811 70.8154 7.98976C70.6615 8.95255 69.7863 9.56066 68.5026 9.35542C67.0876 9.12919 66.6248 8.18748 66.6725 7.32739L65.2575 7.10117C65.0185 8.78342 66.2807 10.1522 68.323 10.4787ZM47.7538 8.18828C46.7782 8.4279 45.8132 7.84347 45.5736 6.8679C45.3305 5.87798 45.9149 4.91298 46.8905 4.67336C47.8804 4.43021 48.8597 5.01112 49.1029 6.00103C49.3425 6.9766 48.7437 7.94513 47.7538 8.18828ZM26.8494 9.52468L25.7837 10.3441L30.7724 16.8322L21.4973 13.6399L20.4316 14.4593L26.717 22.6338L27.7827 21.8144L22.785 15.3146L32.0691 18.5186L33.1348 17.6992L26.8494 9.52468ZM17.8784 33.2499L7.87896 29.4238L8.73228 28.2726L17.0835 31.6677L11.5474 24.4748L12.4447 23.2642L20.8426 26.5468L15.1982 19.5495L16.0603 18.3864L22.5554 26.9154L21.6581 28.1259L13.5749 25.1134L18.755 32.0424L17.8784 33.2499ZM13.4964 42.8263C14.4895 40.0907 13.2195 37.225 10.3173 36.1714C7.41507 35.1179 4.60249 36.5014 3.60938 39.237C2.62132 41.9587 3.88627 44.8383 6.7885 45.8919C9.69074 46.9455 12.5084 45.548 13.4964 42.8263ZM12.3994 42.428C11.6584 44.4693 9.618 45.4574 7.25733 44.6004C4.88277 43.7384 3.96535 41.6765 4.7064 39.6353C5.44745 37.594 7.47392 36.6008 9.84848 37.4629C12.2091 38.3199 13.1405 40.3868 12.3994 42.428ZM0.314411 54.8051C0.64621 51.4384 2.82055 49.5596 5.99614 49.8725C9.17173 50.1855 10.8934 52.4483 10.5616 55.815L10.2472 59.0053L0 57.9954L0.314411 54.8051ZM9.27637 57.5587L9.45893 55.7063C9.72263 53.0306 8.36069 51.4861 5.86139 51.2398C3.36208 50.9935 1.66604 52.2366 1.40235 54.9123L1.21978 56.7647L9.27637 57.5587ZM3.40071 79.5167L3.82289 80.793L13.5988 77.5594L12.0446 72.8608L11.0067 73.2041L12.1387 76.6264L3.40071 79.5167ZM7.84107 89.4767L7.22268 88.2831L15.3948 84.0495L13.7367 80.8489L14.7074 80.346L16.9838 84.7403L7.84107 89.4767ZM21.9182 91.6261C20.0694 89.3785 16.9564 89.0124 14.5719 90.9739C12.1874 92.9353 11.9461 96.0604 13.7949 98.308C15.6343 100.544 18.7567 100.922 21.1412 98.9603C23.5257 96.9988 23.7576 93.8623 21.9182 91.6261ZM21.0169 92.3675C22.3964 94.0446 22.208 96.3038 20.2684 97.8992C18.3175 99.504 16.0758 99.2438 14.6962 97.5666C13.3167 95.8895 13.4937 93.6397 15.4447 92.0349C17.3842 90.4395 19.6373 90.6903 21.0169 92.3675ZM24.4042 104.465C23.7029 105.398 23.7697 106.391 24.9978 107.314L26.5801 108.503L28.9237 105.386L27.3414 104.197C26.1251 103.282 25.0966 103.544 24.4042 104.465ZM26.9889 110.197L24.332 108.2C22.3954 106.744 22.2822 104.977 23.2942 103.631C24.0843 102.58 25.4175 102.011 27.0299 102.742L27.5556 97.7409L28.8427 98.7086L28.2728 103.548L29.5717 104.524L32.1018 101.159L33.1763 101.967L26.9889 110.197ZM36.6116 115.446C39.2572 116.586 42.1982 115.472 43.4199 112.637C44.6417 109.801 43.4194 106.926 40.7738 105.786C38.7251 104.903 36.6586 105.219 35.1698 106.733L36.6486 107.37C37.6494 106.467 38.9281 106.261 40.312 106.858C42.2928 107.711 43.152 109.786 42.1582 112.093C41.1585 114.413 39.0601 115.214 37.0793 114.36C35.6954 113.764 34.9662 112.694 34.9417 111.332L33.4628 110.695C33.3792 112.83 34.5629 114.563 36.6116 115.446ZM51.9929 109.096C49.7951 108.714 48.3683 109.935 48.1178 111.376C47.7622 113.422 49.3093 114.152 50.7175 114.816C51.8937 115.371 52.973 115.88 52.7658 117.072C52.5761 118.164 51.6187 118.582 50.5321 118.363C49.2975 118.134 48.7912 117.251 48.8227 116.552L47.3672 116.299C47.2592 117.87 48.3408 119.152 50.2766 119.489C52.2852 119.838 53.8361 118.938 54.127 117.264C54.4808 115.228 52.9552 114.523 51.5515 113.874C50.3556 113.322 49.2482 112.81 49.467 111.551C49.634 110.59 50.5173 109.994 51.7981 110.217C53.2099 110.462 53.66 111.41 53.6006 112.269L55.0124 112.515C55.2742 110.836 54.0306 109.45 51.9929 109.096ZM76.8472 6.82201C78.0305 3.97017 80.9561 2.8169 83.6169 3.92089C85.6773 4.77578 86.8845 6.49219 86.8297 8.62868L85.3424 8.01158C85.2994 6.65025 84.5558 5.58998 83.164 5.0125C81.1718 4.18593 79.0843 5.01521 78.1162 7.34853C77.1538 9.6682 78.041 11.7317 80.0332 12.5583C81.425 13.1357 82.7008 12.9134 83.6892 11.996L85.1765 12.6131C83.7084 14.1471 81.6463 14.4911 79.5859 13.6362C76.9251 12.5322 75.664 9.67384 76.8472 6.82201ZM95.3398 11.8949C96.5803 12.8014 96.6606 13.7932 95.972 14.7355C95.2921 15.6658 94.2672 15.9415 93.0387 15.0437L91.4404 13.8757L93.7416 10.7268L95.3398 11.8949ZM95.9936 11.0003L93.3099 9.03908L87.2345 17.3525L88.3199 18.1457L90.8041 14.7464L92.1161 15.7052L91.6118 20.5515L92.9119 21.5016L93.3699 16.4934C94.992 17.2031 96.3174 16.6164 97.0931 15.5548C98.0868 14.1951 97.9497 12.4298 95.9936 11.0003ZM105.986 28.0922C103.628 30.0857 100.511 29.7619 98.6316 27.5395C96.762 25.3284 96.9514 22.189 99.3092 20.1955C101.667 18.202 104.794 18.5371 106.664 20.7481C108.543 22.9705 108.344 26.0986 105.986 28.0922ZM100.196 21.2446C98.2785 22.8661 98.1206 25.1277 99.5228 26.786C100.925 28.4443 103.181 28.6646 105.099 27.043C107.028 25.412 107.175 23.16 105.772 21.5017C104.37 19.8434 102.125 19.6135 100.196 21.2446ZM113.371 30.6831L112.737 29.498L103.659 34.3578L105.995 38.7208L106.958 38.2049L105.257 35.027L113.371 30.6831ZM116.872 38.1265L117.311 39.397L108.613 42.4054L109.792 45.812L108.758 46.1694L107.141 41.4923L116.872 38.1265ZM115.118 69.0737C118.297 69.3436 120.446 67.4355 120.732 64.0646L121.003 60.8704L110.743 59.9994L110.472 63.1936C110.186 66.5645 111.938 68.8038 115.118 69.0737ZM111.576 63.2874L111.734 61.4326L119.8 62.1174L119.643 63.9722C119.415 66.6512 117.736 67.9172 115.234 67.7047C112.732 67.4923 111.349 65.9664 111.576 63.2874ZM110.982 82.8318C108.066 81.8176 106.758 78.9695 107.714 76.2207C108.665 73.4858 111.463 72.0503 114.379 73.0645C117.296 74.0787 118.599 76.9409 117.648 79.6757C116.692 82.4245 113.899 83.846 110.982 82.8318ZM113.928 74.3622C111.556 73.5372 109.529 74.5529 108.816 76.604C108.103 78.6551 109.062 80.7092 111.434 81.5342C113.82 82.364 115.833 81.3435 116.546 79.2924C117.259 77.2412 116.314 75.192 113.928 74.3622ZM113.512 89.546L103.462 85.8556L102.602 87.0749L107.875 93.9331L99.7518 91.0303L98.871 92.2529L105.481 100.693L106.327 99.5185L100.589 92.5982L109.03 95.7668L109.911 94.5442L104.278 87.4269L112.674 90.7086L113.512 89.546ZM95.8673 108.866L94.8127 109.7L88.4172 101.612L89.4718 100.778L98.7983 103.856L93.7131 97.4242L94.7676 96.5904L101.163 104.679L100.109 105.513L90.7912 102.446L95.8673 108.866ZM76.1262 112.61C75.8734 111.638 74.9006 111.067 73.9284 111.32C72.9418 111.576 72.3562 112.553 72.609 113.525C72.8656 114.511 73.8527 115.079 74.8392 114.822C75.8115 114.57 76.3828 113.597 76.1262 112.61Z" fill="#303030"/>
<g filter="url(#filter0_b_68_12794)">
<circle cx="60.6479" cy="59.4414" r="35.0649" fill="#F9F9F9" fill-opacity="0.02"/>
</g>
<path d="M61.1274 73.9357V45.9305" stroke="#130F26" stroke-width="1.5" stroke-linecap="round" stroke-linejoin="round"/>
<path d="M67.3751 67.7182L61.1279 73.9359L54.8796 67.7182" stroke="#130F26" stroke-width="1.5" stroke-linecap="round" stroke-linejoin="round"/>
<defs>
<filter id="filter0_b_68_12794" x="-14.417" y="-15.6235" width="150.13" height="150.13" filterUnits="userSpaceOnUse" color-interpolation-filters="sRGB">
<feFlood flood-opacity="0" result="BackgroundImageFix"/>
<feGaussianBlur in="BackgroundImageFix" stdDeviation="20"/>
<feComposite in2="SourceAlpha" operator="in" result="effect1_backgroundBlur_68_12794"/>
<feBlend mode="normal" in="SourceGraphic" in2="effect1_backgroundBlur_68_12794" result="shape"/>
</filter>
</defs>
</svg>
