<svg xmlns="http://www.w3.org/2000/svg" xmlns:xlink="http://www.w3.org/1999/xlink" width="293" height="384" viewBox="0 0 293 384">
  <defs>
    <polygon id="shield-a" points="0 0 291.946 0 291.946 383.167 0 383.167"/>
  </defs>
  <g fill="none" fill-rule="evenodd" transform="translate(.527)">
    <mask id="shield-b" fill="#fff">
      <use xlink:href="#shield-a"/>
    </mask>
    <path fill="#FFF" d="M22.4630482,139.018 C22.4630482,153.364 22.4940482,167.71 22.4560482,182.055 C22.3965089,203.824 25.6460482,225.092 33.1490482,245.517 C53.0930482,299.811 90.0210482,337.744 143.765048,359.253 C145.220048,359.835 146.472048,359.922 148.027048,359.36 C217.754048,334.135 268.491048,262.846 269.357048,188.209 C269.755048,153.908 269.436048,119.599 269.531048,85.295 C269.538048,82.805 268.948048,81.679 266.297048,81.656 C263.566048,81.632 260.831048,81.254 258.111048,80.919 C217.282048,75.891 181.606048,59.587 151.151048,31.922 C145.923048,27.173 146.043048,27.167 140.919048,31.807 C108.295048,61.346 70.0900482,78.102 26.1810482,81.594 C23.0160482,81.846 22.3750482,82.937 22.3965089,85.877 C22.5300482,103.59 22.4630482,121.304 22.4630482,139.018 L22.4630482,139.018 Z M148.966048,0 C153.091048,1.965 156.044048,5.345 159.159048,8.512 C179.110048,28.788 202.516048,43.474 229.675048,52.053 C245.583048,57.078 261.903048,59.614 278.583048,59.857 C287.876048,59.992 291.934048,64.124 291.935048,73.458 C291.939048,109.501 291.960048,145.544 291.932048,181.587 C291.866048,266.497 244.095048,340.683 166.816048,375.813 C161.610048,378.18 156.199048,380.098 150.880048,382.216 C147.605048,383.521 144.384048,383.455 141.058048,382.187 C67.0610482,353.953 21.4210482,301.114 4.02604817,223.942 C0.979048172,210.424 -0.00795182776,196.585 0,182.703 C0.0210481722,146.161 0.00304817224,109.619 0.0100481722,73.077 C0.0110481722,64.255 4.20404817,60.03 12.9890482,59.854 C59.5590482,58.92 99.2850482,41.907 132.261048,9.049 C135.583048,5.739 138.638048,2.107 142.978048,0 L148.966048,0 Z" mask="url(#shield-b)"/>
    <path fill="#FFF" d="M224.565108,191.1548 C224.694748,147.8548 189.575748,112.4438 146.345748,112.283255 C103.031748,112.1238 67.5687482,147.2058 67.3789825,190.4018 C67.1897482,233.8878 102.383748,269.3818 145.777748,269.469961 C189.056748,269.5568 224.434748,234.3908 224.565108,191.1548 M247.020751,190.8998 C247.007748,246.6468 201.499748,292.0458 145.752748,291.926037 C90.1677482,291.8068 44.9037482,246.4288 44.9227422,190.8418 C44.9407482,135.0928 90.4327482,89.7138 146.185748,89.8275857 C201.790748,89.9408 247.033748,135.2908 247.020751,190.8998"/>
    <path fill="#FFF" d="M130.730048,239.5205 C127.681048,239.4075 124.936048,238.1315 122.633048,235.8275 C112.939048,226.1255 103.195048,216.4735 93.5610482,206.7125 C88.6650482,201.7525 88.6190482,194.8395 93.2190482,190.3495 C97.7250482,185.9505 104.454048,186.0345 109.320048,190.7685 C115.664048,196.9415 121.967048,203.1635 128.079048,209.5635 C130.249048,211.8365 131.430048,212.1495 133.856048,209.6835 C149.771048,193.5095 165.896048,177.5425 181.912048,161.4675 C185.013048,158.3555 188.548048,156.5495 192.980048,157.4185 C201.061048,159.0035 204.680048,168.1425 199.961048,174.9115 C199.254048,175.9255 198.373048,176.8325 197.495048,177.7115 C178.461048,196.7635 159.404048,215.7915 140.387048,234.8615 C137.740048,237.5165 134.845048,239.4735 130.730048,239.5205"/>
  </g>
</svg>
