<svg width="451" height="330" viewBox="0 0 451 330" fill="none" xmlns="http://www.w3.org/2000/svg">
<g clip-path="url(#clip0_56_11784)">
<mask id="path-1-inside-1_56_11784" fill="white">
<path d="M0 0H451V330H0V0Z"/>
</mask>
<g filter="url(#filter0_d_56_11784)">
<rect y="71" width="281" height="188" rx="20" fill="white" shape-rendering="crispEdges"/>
<rect x="0.5" y="71.5" width="280" height="187" rx="19.5" stroke="#303030" stroke-opacity="0.05" shape-rendering="crispEdges"/>
<rect x="24" y="95" width="44" height="44" rx="22" fill="#FF7C24" fill-opacity="0.05"/>
<path d="M46 106.875C43.9975 106.875 42.0399 107.469 40.3749 108.581C38.7098 109.694 37.4121 111.275 36.6457 113.125C35.8794 114.975 35.6789 117.011 36.0696 118.975C36.4602 120.939 37.4245 122.743 38.8405 124.159C40.2566 125.575 42.0607 126.54 44.0247 126.93C45.9888 127.321 48.0246 127.121 49.8747 126.354C51.7248 125.588 53.3061 124.29 54.4186 122.625C55.5312 120.96 56.125 119.003 56.125 117C56.122 114.316 55.0543 111.742 53.1562 109.844C51.258 107.946 48.6844 106.878 46 106.875ZM46 124.875C44.4425 124.875 42.9199 124.413 41.6249 123.548C40.3299 122.683 39.3205 121.453 38.7245 120.014C38.1284 118.575 37.9725 116.991 38.2763 115.464C38.5802 113.936 39.3302 112.533 40.4315 111.432C41.5329 110.33 42.9361 109.58 44.4637 109.276C45.9913 108.972 47.5747 109.128 49.0136 109.724C50.4526 110.32 51.6825 111.33 52.5478 112.625C53.4131 113.92 53.875 115.442 53.875 117C53.8728 119.088 53.0424 121.09 51.566 122.566C50.0896 124.042 48.0879 124.873 46 124.875ZM50.125 118.875C50.125 119.671 49.8089 120.434 49.2463 120.996C48.6837 121.559 47.9207 121.875 47.125 121.875V122.25C47.125 122.548 47.0065 122.835 46.7955 123.045C46.5845 123.256 46.2984 123.375 46 123.375C45.7016 123.375 45.4155 123.256 45.2045 123.045C44.9935 122.835 44.875 122.548 44.875 122.25V121.875H43.75C43.4516 121.875 43.1655 121.756 42.9545 121.545C42.7435 121.335 42.625 121.048 42.625 120.75C42.625 120.452 42.7435 120.165 42.9545 119.955C43.1655 119.744 43.4516 119.625 43.75 119.625H47.125C47.3239 119.625 47.5147 119.546 47.6553 119.405C47.796 119.265 47.875 119.074 47.875 118.875C47.875 118.676 47.796 118.485 47.6553 118.345C47.5147 118.204 47.3239 118.125 47.125 118.125H44.875C44.0794 118.125 43.3163 117.809 42.7537 117.246C42.1911 116.684 41.875 115.921 41.875 115.125C41.875 114.329 42.1911 113.566 42.7537 113.004C43.3163 112.441 44.0794 112.125 44.875 112.125V111.75C44.875 111.452 44.9935 111.165 45.2045 110.955C45.4155 110.744 45.7016 110.625 46 110.625C46.2984 110.625 46.5845 110.744 46.7955 110.955C47.0065 111.165 47.125 111.452 47.125 111.75V112.125H48.25C48.5484 112.125 48.8345 112.244 49.0455 112.455C49.2565 112.665 49.375 112.952 49.375 113.25C49.375 113.548 49.2565 113.835 49.0455 114.045C48.8345 114.256 48.5484 114.375 48.25 114.375H44.875C44.6761 114.375 44.4853 114.454 44.3447 114.595C44.204 114.735 44.125 114.926 44.125 115.125C44.125 115.324 44.204 115.515 44.3447 115.655C44.4853 115.796 44.6761 115.875 44.875 115.875H47.125C47.9207 115.875 48.6837 116.191 49.2463 116.754C49.8089 117.316 50.125 118.079 50.125 118.875Z" fill="#FF7C24"/>
<path d="M33.126 203.324C31.866 203.324 30.696 203.09 29.616 202.622C28.536 202.136 27.618 201.479 26.862 200.651C26.106 199.823 25.548 198.869 25.188 197.789L27.888 196.655C28.374 197.897 29.085 198.851 30.021 199.517C30.957 200.183 32.037 200.516 33.261 200.516C33.981 200.516 34.611 200.408 35.151 200.192C35.691 199.958 36.105 199.634 36.393 199.22C36.699 198.806 36.852 198.329 36.852 197.789C36.852 197.051 36.645 196.466 36.231 196.034C35.817 195.602 35.205 195.26 34.395 195.008L30.615 193.82C29.103 193.352 27.951 192.641 27.159 191.687C26.367 190.715 25.971 189.581 25.971 188.285C25.971 187.151 26.25 186.161 26.808 185.315C27.366 184.451 28.131 183.776 29.103 183.29C30.093 182.804 31.218 182.561 32.478 182.561C33.684 182.561 34.782 182.777 35.772 183.209C36.762 183.623 37.608 184.199 38.31 184.937C39.03 185.675 39.552 186.53 39.876 187.502L37.23 188.663C36.834 187.601 36.213 186.782 35.367 186.206C34.539 185.63 33.576 185.342 32.478 185.342C31.812 185.342 31.227 185.459 30.723 185.693C30.219 185.909 29.823 186.233 29.535 186.665C29.265 187.079 29.13 187.565 29.13 188.123C29.13 188.771 29.337 189.347 29.751 189.851C30.165 190.355 30.795 190.733 31.641 190.985L35.151 192.092C36.753 192.578 37.959 193.28 38.769 194.198C39.579 195.098 39.984 196.223 39.984 197.573C39.984 198.689 39.687 199.679 39.093 200.543C38.517 201.407 37.716 202.091 36.69 202.595C35.664 203.081 34.476 203.324 33.126 203.324ZM31.884 205.7V180.185H34.044V205.7H31.884ZM42.8314 203V200.705L48.3394 194.819C49.4194 193.667 50.2654 192.74 50.8774 192.038C51.5074 191.318 51.9574 190.688 52.2274 190.148C52.5154 189.608 52.6594 189.041 52.6594 188.447C52.6594 187.475 52.3624 186.728 51.7684 186.206C51.1744 185.666 50.4094 185.396 49.4734 185.396C48.5014 185.396 47.6644 185.675 46.9624 186.233C46.2604 186.773 45.7744 187.565 45.5044 188.609L42.6964 187.799C42.9124 186.737 43.3444 185.819 43.9924 185.045C44.6404 184.253 45.4324 183.641 46.3684 183.209C47.3224 182.777 48.3484 182.561 49.4464 182.561C50.7244 182.561 51.8404 182.804 52.7944 183.29C53.7484 183.758 54.4864 184.415 55.0084 185.261C55.5484 186.107 55.8184 187.088 55.8184 188.204C55.8184 188.942 55.6744 189.662 55.3864 190.364C55.1164 191.048 54.6934 191.777 54.1174 192.551C53.5414 193.307 52.8034 194.162 51.9034 195.116L47.0434 200.3H56.1964V203H42.8314ZM67.3112 203.324C65.7092 203.324 64.3052 202.892 63.0992 202.028C61.8932 201.146 60.9482 199.931 60.2642 198.383C59.5982 196.817 59.2652 194.999 59.2652 192.929C59.2652 190.841 59.5982 189.023 60.2642 187.475C60.9482 185.927 61.8842 184.721 63.0722 183.857C64.2782 182.993 65.6822 182.561 67.2842 182.561C68.8862 182.561 70.2812 182.993 71.4692 183.857C72.6752 184.721 73.6112 185.936 74.2772 187.502C74.9612 189.05 75.3032 190.859 75.3032 192.929C75.3032 194.999 74.9702 196.817 74.3042 198.383C73.6382 199.931 72.7022 201.146 71.4962 202.028C70.3082 202.892 68.9132 203.324 67.3112 203.324ZM67.3112 200.408C68.3012 200.408 69.1562 200.102 69.8762 199.49C70.5962 198.878 71.1542 198.014 71.5502 196.898C71.9462 195.782 72.1442 194.459 72.1442 192.929C72.1442 191.399 71.9462 190.076 71.5502 188.96C71.1542 187.844 70.5962 186.98 69.8762 186.368C69.1562 185.756 68.2922 185.45 67.2842 185.45C66.2942 185.45 65.4392 185.756 64.7192 186.368C63.9992 186.98 63.4412 187.844 63.0452 188.96C62.6492 190.076 62.4512 191.399 62.4512 192.929C62.4512 194.441 62.6492 195.764 63.0452 196.898C63.4412 198.014 63.9992 198.878 64.7192 199.49C65.4572 200.102 66.3212 200.408 67.3112 200.408ZM86.6383 203.324C85.0363 203.324 83.6323 202.892 82.4263 202.028C81.2203 201.146 80.2753 199.931 79.5913 198.383C78.9253 196.817 78.5923 194.999 78.5923 192.929C78.5923 190.841 78.9253 189.023 79.5913 187.475C80.2753 185.927 81.2113 184.721 82.3993 183.857C83.6053 182.993 85.0093 182.561 86.6113 182.561C88.2133 182.561 89.6083 182.993 90.7963 183.857C92.0023 184.721 92.9383 185.936 93.6043 187.502C94.2883 189.05 94.6303 190.859 94.6303 192.929C94.6303 194.999 94.2973 196.817 93.6313 198.383C92.9653 199.931 92.0293 201.146 90.8233 202.028C89.6353 202.892 88.2403 203.324 86.6383 203.324ZM86.6383 200.408C87.6283 200.408 88.4833 200.102 89.2033 199.49C89.9233 198.878 90.4813 198.014 90.8773 196.898C91.2733 195.782 91.4713 194.459 91.4713 192.929C91.4713 191.399 91.2733 190.076 90.8773 188.96C90.4813 187.844 89.9233 186.98 89.2033 186.368C88.4833 185.756 87.6193 185.45 86.6113 185.45C85.6213 185.45 84.7663 185.756 84.0463 186.368C83.3263 186.98 82.7683 187.844 82.3723 188.96C81.9763 190.076 81.7783 191.399 81.7783 192.929C81.7783 194.441 81.9763 195.764 82.3723 196.898C82.7683 198.014 83.3263 198.878 84.0463 199.49C84.7843 200.102 85.6483 200.408 86.6383 200.408ZM99.4045 203V199.49H102.509V203H99.4045ZM115.326 203.324C113.724 203.324 112.32 202.892 111.114 202.028C109.908 201.146 108.963 199.931 108.279 198.383C107.613 196.817 107.28 194.999 107.28 192.929C107.28 190.841 107.613 189.023 108.279 187.475C108.963 185.927 109.899 184.721 111.087 183.857C112.293 182.993 113.697 182.561 115.299 182.561C116.901 182.561 118.296 182.993 119.484 183.857C120.69 184.721 121.626 185.936 122.292 187.502C122.976 189.05 123.318 190.859 123.318 192.929C123.318 194.999 122.985 196.817 122.319 198.383C121.653 199.931 120.717 201.146 119.511 202.028C118.323 202.892 116.928 203.324 115.326 203.324ZM115.326 200.408C116.316 200.408 117.171 200.102 117.891 199.49C118.611 198.878 119.169 198.014 119.565 196.898C119.961 195.782 120.159 194.459 120.159 192.929C120.159 191.399 119.961 190.076 119.565 188.96C119.169 187.844 118.611 186.98 117.891 186.368C117.171 185.756 116.307 185.45 115.299 185.45C114.309 185.45 113.454 185.756 112.734 186.368C112.014 186.98 111.456 187.844 111.06 188.96C110.664 190.076 110.466 191.399 110.466 192.929C110.466 194.441 110.664 195.764 111.06 196.898C111.456 198.014 112.014 198.878 112.734 199.49C113.472 200.102 114.336 200.408 115.326 200.408ZM134.653 203.324C133.051 203.324 131.647 202.892 130.441 202.028C129.235 201.146 128.29 199.931 127.606 198.383C126.94 196.817 126.607 194.999 126.607 192.929C126.607 190.841 126.94 189.023 127.606 187.475C128.29 185.927 129.226 184.721 130.414 183.857C131.62 182.993 133.024 182.561 134.626 182.561C136.228 182.561 137.623 182.993 138.811 183.857C140.017 184.721 140.953 185.936 141.619 187.502C142.303 189.05 142.645 190.859 142.645 192.929C142.645 194.999 142.312 196.817 141.646 198.383C140.98 199.931 140.044 201.146 138.838 202.028C137.65 202.892 136.255 203.324 134.653 203.324ZM134.653 200.408C135.643 200.408 136.498 200.102 137.218 199.49C137.938 198.878 138.496 198.014 138.892 196.898C139.288 195.782 139.486 194.459 139.486 192.929C139.486 191.399 139.288 190.076 138.892 188.96C138.496 187.844 137.938 186.98 137.218 186.368C136.498 185.756 135.634 185.45 134.626 185.45C133.636 185.45 132.781 185.756 132.061 186.368C131.341 186.98 130.783 187.844 130.387 188.96C129.991 190.076 129.793 191.399 129.793 192.929C129.793 194.441 129.991 195.764 130.387 196.898C130.783 198.014 131.341 198.878 132.061 199.49C132.799 200.102 133.663 200.408 134.653 200.408Z" fill="#303030"/>
<path d="M27.36 231V222.572H24.35V221.2H31.882V222.572H28.872V231H27.36ZM35.175 231.196C34.4843 231.196 33.8683 231.056 33.327 230.776C32.795 230.487 32.375 230.076 32.067 229.544C31.759 229.012 31.605 228.382 31.605 227.654V227.444C31.605 226.716 31.759 226.091 32.067 225.568C32.375 225.036 32.795 224.625 33.327 224.336C33.8683 224.047 34.4843 223.902 35.175 223.902C35.8656 223.902 36.4816 224.047 37.023 224.336C37.5643 224.625 37.989 225.036 38.297 225.568C38.605 226.091 38.759 226.716 38.759 227.444V227.654C38.759 228.382 38.605 229.012 38.297 229.544C37.989 230.076 37.5643 230.487 37.023 230.776C36.4816 231.056 35.8656 231.196 35.175 231.196ZM35.175 229.908C35.8096 229.908 36.323 229.707 36.715 229.306C37.1163 228.895 37.317 228.331 37.317 227.612V227.486C37.317 226.767 37.121 226.207 36.729 225.806C36.337 225.395 35.819 225.19 35.175 225.19C34.5496 225.19 34.0363 225.395 33.635 225.806C33.243 226.207 33.047 226.767 33.047 227.486V227.612C33.047 228.331 33.243 228.895 33.635 229.306C34.0363 229.707 34.5496 229.908 35.175 229.908ZM42.8981 231C42.4781 231 42.1421 230.874 41.8901 230.622C41.6475 230.37 41.5261 230.034 41.5261 229.614V225.316H39.6221V224.098H41.5261V221.816H42.9681V224.098H45.0261V225.316H42.9681V229.362C42.9681 229.642 43.0988 229.782 43.3601 229.782H44.8021V231H42.8981ZM48.8486 231.196C48.3539 231.196 47.9106 231.112 47.5186 230.944C47.1359 230.776 46.8279 230.529 46.5946 230.202C46.3706 229.875 46.2586 229.479 46.2586 229.012C46.2586 228.536 46.3706 228.144 46.5946 227.836C46.8279 227.519 47.1406 227.281 47.5326 227.122C47.9339 226.963 48.3866 226.884 48.8906 226.884H50.9906V226.436C50.9906 226.035 50.8692 225.713 50.6266 225.47C50.3839 225.227 50.0106 225.106 49.5066 225.106C49.0119 225.106 48.6339 225.223 48.3726 225.456C48.1112 225.689 47.9386 225.993 47.8546 226.366L46.5106 225.932C46.6226 225.559 46.7999 225.223 47.0426 224.924C47.2946 224.616 47.6259 224.369 48.0366 224.182C48.4472 223.995 48.9419 223.902 49.5206 223.902C50.4166 223.902 51.1212 224.131 51.6346 224.588C52.1479 225.045 52.4046 225.694 52.4046 226.534V229.376C52.4046 229.656 52.5352 229.796 52.7966 229.796H53.3846V231H52.3066C51.9799 231 51.7139 230.916 51.5086 230.748C51.3032 230.58 51.2006 230.351 51.2006 230.062V230.02H50.9906C50.9159 230.16 50.8039 230.323 50.6546 230.51C50.5052 230.697 50.2859 230.86 49.9966 231C49.7072 231.131 49.3246 231.196 48.8486 231.196ZM49.0586 230.006C49.6372 230.006 50.1039 229.843 50.4586 229.516C50.8132 229.18 50.9906 228.723 50.9906 228.144V228.004H48.9746C48.5919 228.004 48.2839 228.088 48.0506 228.256C47.8172 228.415 47.7006 228.653 47.7006 228.97C47.7006 229.287 47.8219 229.539 48.0646 229.726C48.3072 229.913 48.6386 230.006 49.0586 230.006ZM54.7867 231V221.2H56.2287V231H54.7867ZM65.143 231.196C64.4804 231.196 63.8784 231.056 63.337 230.776C62.805 230.496 62.3804 230.09 62.063 229.558C61.755 229.026 61.601 228.387 61.601 227.64V227.458C61.601 226.711 61.755 226.077 62.063 225.554C62.3804 225.022 62.805 224.616 63.337 224.336C63.8784 224.047 64.4804 223.902 65.143 223.902C65.8057 223.902 66.3704 224.023 66.837 224.266C67.3037 224.509 67.677 224.831 67.957 225.232C68.2464 225.633 68.433 226.077 68.517 226.562L67.117 226.856C67.0704 226.548 66.9724 226.268 66.823 226.016C66.6737 225.764 66.4637 225.563 66.193 225.414C65.9224 225.265 65.5817 225.19 65.171 225.19C64.7697 225.19 64.4057 225.283 64.079 225.47C63.7617 225.647 63.5097 225.909 63.323 226.254C63.1364 226.59 63.043 227.001 63.043 227.486V227.612C63.043 228.097 63.1364 228.513 63.323 228.858C63.5097 229.203 63.7617 229.465 64.079 229.642C64.4057 229.819 64.7697 229.908 65.171 229.908C65.7777 229.908 66.2397 229.754 66.557 229.446C66.8744 229.129 67.075 228.727 67.159 228.242L68.559 228.564C68.447 229.04 68.2464 229.479 67.957 229.88C67.677 230.281 67.3037 230.603 66.837 230.846C66.3704 231.079 65.8057 231.196 65.143 231.196ZM73.4562 231.196C72.7655 231.196 72.1495 231.056 71.6082 230.776C71.0762 230.487 70.6562 230.076 70.3482 229.544C70.0402 229.012 69.8862 228.382 69.8862 227.654V227.444C69.8862 226.716 70.0402 226.091 70.3482 225.568C70.6562 225.036 71.0762 224.625 71.6082 224.336C72.1495 224.047 72.7655 223.902 73.4562 223.902C74.1469 223.902 74.7629 224.047 75.3042 224.336C75.8455 224.625 76.2702 225.036 76.5782 225.568C76.8862 226.091 77.0402 226.716 77.0402 227.444V227.654C77.0402 228.382 76.8862 229.012 76.5782 229.544C76.2702 230.076 75.8455 230.487 75.3042 230.776C74.7629 231.056 74.1469 231.196 73.4562 231.196ZM73.4562 229.908C74.0909 229.908 74.6042 229.707 74.9962 229.306C75.3975 228.895 75.5982 228.331 75.5982 227.612V227.486C75.5982 226.767 75.4022 226.207 75.0102 225.806C74.6182 225.395 74.1002 225.19 73.4562 225.19C72.8309 225.19 72.3175 225.395 71.9162 225.806C71.5242 226.207 71.3282 226.767 71.3282 227.486V227.612C71.3282 228.331 71.5242 228.895 71.9162 229.306C72.3175 229.707 72.8309 229.908 73.4562 229.908ZM78.8355 231V224.098H80.2495V224.91H80.4735C80.6042 224.667 80.8142 224.453 81.1035 224.266C81.3928 224.079 81.7848 223.986 82.2795 223.986C82.7928 223.986 83.2035 224.093 83.5115 224.308C83.8288 224.513 84.0668 224.779 84.2255 225.106H84.4495C84.6082 224.789 84.8368 224.523 85.1355 224.308C85.4435 224.093 85.8775 223.986 86.4375 223.986C86.8855 223.986 87.2822 224.079 87.6275 224.266C87.9728 224.443 88.2482 224.714 88.4535 225.078C88.6588 225.433 88.7615 225.876 88.7615 226.408V231H87.3195V226.52C87.3195 226.1 87.2028 225.778 86.9695 225.554C86.7455 225.321 86.4235 225.204 86.0035 225.204C85.5555 225.204 85.1962 225.349 84.9255 225.638C84.6548 225.927 84.5195 226.343 84.5195 226.884V231H83.0775V226.52C83.0775 226.1 82.9608 225.778 82.7275 225.554C82.5035 225.321 82.1815 225.204 81.7615 225.204C81.3135 225.204 80.9542 225.349 80.6835 225.638C80.4128 225.927 80.2775 226.343 80.2775 226.884V231H78.8355ZM90.8394 231V224.098H92.2534V224.91H92.4774C92.6081 224.667 92.8181 224.453 93.1074 224.266C93.3967 224.079 93.7887 223.986 94.2834 223.986C94.7967 223.986 95.2074 224.093 95.5154 224.308C95.8327 224.513 96.0707 224.779 96.2294 225.106H96.4534C96.6121 224.789 96.8407 224.523 97.1394 224.308C97.4474 224.093 97.8814 223.986 98.4414 223.986C98.8894 223.986 99.2861 224.079 99.6314 224.266C99.9767 224.443 100.252 224.714 100.457 225.078C100.663 225.433 100.765 225.876 100.765 226.408V231H99.3234V226.52C99.3234 226.1 99.2067 225.778 98.9734 225.554C98.7494 225.321 98.4274 225.204 98.0074 225.204C97.5594 225.204 97.2001 225.349 96.9294 225.638C96.6587 225.927 96.5234 226.343 96.5234 226.884V231H95.0814V226.52C95.0814 226.1 94.9647 225.778 94.7314 225.554C94.5074 225.321 94.1854 225.204 93.7654 225.204C93.3174 225.204 92.9581 225.349 92.6874 225.638C92.4167 225.927 92.2814 226.343 92.2814 226.884V231H90.8394ZM102.843 231V224.098H104.285V231H102.843ZM103.571 223.16C103.291 223.16 103.053 223.071 102.857 222.894C102.671 222.707 102.577 222.469 102.577 222.18C102.577 221.891 102.671 221.657 102.857 221.48C103.053 221.293 103.291 221.2 103.571 221.2C103.861 221.2 104.099 221.293 104.285 221.48C104.472 221.657 104.565 221.891 104.565 222.18C104.565 222.469 104.472 222.707 104.285 222.894C104.099 223.071 103.861 223.16 103.571 223.16ZM109.015 231C108.595 231 108.259 230.874 108.007 230.622C107.765 230.37 107.643 230.034 107.643 229.614V225.316H105.739V224.098H107.643V221.816H109.085V224.098H110.709V225.316H109.085V229.362C109.085 229.642 109.216 229.782 109.477 229.782H110.919V231H109.015ZM113.551 231C113.131 231 112.795 230.874 112.543 230.622C112.291 230.37 112.165 230.034 112.165 229.614V225.316H110.709V224.098H112.165V221.816H113.607V224.098H115.679V225.316H113.607V229.362C113.607 229.642 113.743 229.782 114.013 229.782H115.441V231H113.551ZM120.541 231.196C119.841 231.196 119.229 231.051 118.707 230.762C118.184 230.463 117.773 230.048 117.475 229.516C117.185 228.975 117.041 228.349 117.041 227.64V227.472C117.041 226.753 117.185 226.128 117.475 225.596C117.764 225.055 118.165 224.639 118.679 224.35C119.201 224.051 119.803 223.902 120.485 223.902C121.147 223.902 121.726 224.051 122.221 224.35C122.725 224.639 123.117 225.045 123.397 225.568C123.677 226.091 123.817 226.702 123.817 227.402V227.948H118.511C118.529 228.555 118.73 229.04 119.113 229.404C119.505 229.759 119.99 229.936 120.569 229.936C121.11 229.936 121.516 229.815 121.787 229.572C122.067 229.329 122.281 229.049 122.431 228.732L123.621 229.348C123.49 229.609 123.299 229.885 123.047 230.174C122.804 230.463 122.482 230.706 122.081 230.902C121.679 231.098 121.166 231.196 120.541 231.196ZM118.525 226.842H122.347C122.309 226.319 122.123 225.913 121.787 225.624C121.451 225.325 121.012 225.176 120.471 225.176C119.929 225.176 119.486 225.325 119.141 225.624C118.805 225.913 118.599 226.319 118.525 226.842ZM128.408 231.196C127.839 231.196 127.312 231.056 126.826 230.776C126.341 230.496 125.949 230.095 125.65 229.572C125.361 229.04 125.216 228.401 125.216 227.654V227.444C125.216 226.707 125.361 226.072 125.65 225.54C125.94 225.008 126.327 224.602 126.812 224.322C127.298 224.042 127.83 223.902 128.408 223.902C128.856 223.902 129.23 223.958 129.528 224.07C129.836 224.182 130.088 224.327 130.284 224.504C130.48 224.672 130.63 224.849 130.732 225.036H130.956V221.2H132.398V231H130.984V230.02H130.76C130.583 230.319 130.312 230.589 129.948 230.832C129.594 231.075 129.08 231.196 128.408 231.196ZM128.814 229.936C129.44 229.936 129.953 229.735 130.354 229.334C130.765 228.933 130.97 228.359 130.97 227.612V227.486C130.97 226.749 130.77 226.179 130.368 225.778C129.967 225.377 129.449 225.176 128.814 225.176C128.198 225.176 127.685 225.377 127.274 225.778C126.873 226.179 126.672 226.749 126.672 227.486V227.612C126.672 228.359 126.873 228.933 127.274 229.334C127.685 229.735 128.198 229.936 128.814 229.936Z" fill="#303030" fill-opacity="0.5"/>
</g>
<g filter="url(#filter1_d_56_11784)">
<rect x="297" y="71" width="281" height="188" rx="20" fill="white" shape-rendering="crispEdges"/>
<rect x="297.5" y="71.5" width="280" height="187" rx="19.5" stroke="#303030" stroke-opacity="0.05" shape-rendering="crispEdges"/>
<rect x="321" y="95" width="44" height="44" rx="22" fill="#00C77F" fill-opacity="0.05"/>
<path d="M354.589 108.717C354.573 108.442 354.457 108.183 354.262 107.988C354.067 107.793 353.808 107.677 353.533 107.661C348.538 107.366 344.514 108.914 342.767 111.799C341.628 113.674 341.589 115.94 342.63 118.108C342.185 118.676 341.829 119.308 341.576 119.983L340.667 119.074C341.341 117.502 341.269 115.876 340.442 114.509C339.131 112.346 336.146 111.187 332.458 111.401C332.183 111.417 331.924 111.534 331.729 111.729C331.534 111.923 331.418 112.183 331.401 112.458C331.187 116.146 332.346 119.131 334.511 120.442C335.245 120.889 336.089 121.125 336.948 121.123C337.681 121.117 338.406 120.962 339.077 120.667L341.125 122.719V125.25C341.125 125.548 341.244 125.834 341.455 126.045C341.665 126.256 341.952 126.375 342.25 126.375C342.548 126.375 342.835 126.256 343.045 126.045C343.256 125.834 343.375 125.548 343.375 125.25V122.485C343.373 121.48 343.684 120.498 344.265 119.677C345.205 120.125 346.232 120.363 347.273 120.375C348.394 120.378 349.494 120.071 350.451 119.488C353.336 117.736 354.884 113.711 354.589 108.717ZM335.676 118.517C334.44 117.767 333.691 115.942 333.63 113.63C335.942 113.691 337.768 114.441 338.517 115.676C338.81 116.153 338.93 116.715 338.857 117.27L337.795 116.204C337.584 115.993 337.297 115.874 336.998 115.874C336.699 115.874 336.413 115.993 336.201 116.204C335.99 116.415 335.871 116.702 335.871 117.001C335.871 117.3 335.99 117.586 336.201 117.798L337.264 118.861C336.711 118.929 336.151 118.808 335.676 118.517ZM349.286 117.562C348.287 118.167 347.13 118.282 345.929 117.915L349.421 114.424C349.632 114.212 349.751 113.926 349.751 113.627C349.751 113.328 349.632 113.041 349.421 112.83C349.21 112.619 348.923 112.5 348.624 112.5C348.325 112.5 348.039 112.619 347.827 112.83L344.335 116.321C343.972 115.125 344.087 113.963 344.687 112.969C345.885 110.992 348.719 109.868 352.375 109.875C352.388 113.531 351.263 116.361 349.286 117.562Z" fill="#00C77F"/>
<path d="M330.126 203.324C328.866 203.324 327.696 203.09 326.616 202.622C325.536 202.136 324.618 201.479 323.862 200.651C323.106 199.823 322.548 198.869 322.188 197.789L324.888 196.655C325.374 197.897 326.085 198.851 327.021 199.517C327.957 200.183 329.037 200.516 330.261 200.516C330.981 200.516 331.611 200.408 332.151 200.192C332.691 199.958 333.105 199.634 333.393 199.22C333.699 198.806 333.852 198.329 333.852 197.789C333.852 197.051 333.645 196.466 333.231 196.034C332.817 195.602 332.205 195.26 331.395 195.008L327.615 193.82C326.103 193.352 324.951 192.641 324.159 191.687C323.367 190.715 322.971 189.581 322.971 188.285C322.971 187.151 323.25 186.161 323.808 185.315C324.366 184.451 325.131 183.776 326.103 183.29C327.093 182.804 328.218 182.561 329.478 182.561C330.684 182.561 331.782 182.777 332.772 183.209C333.762 183.623 334.608 184.199 335.31 184.937C336.03 185.675 336.552 186.53 336.876 187.502L334.23 188.663C333.834 187.601 333.213 186.782 332.367 186.206C331.539 185.63 330.576 185.342 329.478 185.342C328.812 185.342 328.227 185.459 327.723 185.693C327.219 185.909 326.823 186.233 326.535 186.665C326.265 187.079 326.13 187.565 326.13 188.123C326.13 188.771 326.337 189.347 326.751 189.851C327.165 190.355 327.795 190.733 328.641 190.985L332.151 192.092C333.753 192.578 334.959 193.28 335.769 194.198C336.579 195.098 336.984 196.223 336.984 197.573C336.984 198.689 336.687 199.679 336.093 200.543C335.517 201.407 334.716 202.091 333.69 202.595C332.664 203.081 331.476 203.324 330.126 203.324ZM328.884 205.7V180.185H331.044V205.7H328.884ZM339.831 203V200.705L345.339 194.819C346.419 193.667 347.265 192.74 347.877 192.038C348.507 191.318 348.957 190.688 349.227 190.148C349.515 189.608 349.659 189.041 349.659 188.447C349.659 187.475 349.362 186.728 348.768 186.206C348.174 185.666 347.409 185.396 346.473 185.396C345.501 185.396 344.664 185.675 343.962 186.233C343.26 186.773 342.774 187.565 342.504 188.609L339.696 187.799C339.912 186.737 340.344 185.819 340.992 185.045C341.64 184.253 342.432 183.641 343.368 183.209C344.322 182.777 345.348 182.561 346.446 182.561C347.724 182.561 348.84 182.804 349.794 183.29C350.748 183.758 351.486 184.415 352.008 185.261C352.548 186.107 352.818 187.088 352.818 188.204C352.818 188.942 352.674 189.662 352.386 190.364C352.116 191.048 351.693 191.777 351.117 192.551C350.541 193.307 349.803 194.162 348.903 195.116L344.043 200.3H353.196V203H339.831ZM357.183 206.969V205.484C357.777 205.34 358.236 205.061 358.56 204.647C358.884 204.251 359.082 203.702 359.154 203H357.723V199.49H360.828V201.785C360.828 203.225 360.522 204.386 359.91 205.268C359.298 206.15 358.389 206.717 357.183 206.969ZM373.171 203.324C371.569 203.324 370.165 202.892 368.959 202.028C367.753 201.146 366.808 199.931 366.124 198.383C365.458 196.817 365.125 194.999 365.125 192.929C365.125 190.841 365.458 189.023 366.124 187.475C366.808 185.927 367.744 184.721 368.932 183.857C370.138 182.993 371.542 182.561 373.144 182.561C374.746 182.561 376.141 182.993 377.329 183.857C378.535 184.721 379.471 185.936 380.137 187.502C380.821 189.05 381.163 190.859 381.163 192.929C381.163 194.999 380.83 196.817 380.164 198.383C379.498 199.931 378.562 201.146 377.356 202.028C376.168 202.892 374.773 203.324 373.171 203.324ZM373.171 200.408C374.161 200.408 375.016 200.102 375.736 199.49C376.456 198.878 377.014 198.014 377.41 196.898C377.806 195.782 378.004 194.459 378.004 192.929C378.004 191.399 377.806 190.076 377.41 188.96C377.014 187.844 376.456 186.98 375.736 186.368C375.016 185.756 374.152 185.45 373.144 185.45C372.154 185.45 371.299 185.756 370.579 186.368C369.859 186.98 369.301 187.844 368.905 188.96C368.509 190.076 368.311 191.399 368.311 192.929C368.311 194.441 368.509 195.764 368.905 196.898C369.301 198.014 369.859 198.878 370.579 199.49C371.317 200.102 372.181 200.408 373.171 200.408ZM392.498 203.324C390.896 203.324 389.492 202.892 388.286 202.028C387.08 201.146 386.135 199.931 385.451 198.383C384.785 196.817 384.452 194.999 384.452 192.929C384.452 190.841 384.785 189.023 385.451 187.475C386.135 185.927 387.071 184.721 388.259 183.857C389.465 182.993 390.869 182.561 392.471 182.561C394.073 182.561 395.468 182.993 396.656 183.857C397.862 184.721 398.798 185.936 399.464 187.502C400.148 189.05 400.49 190.859 400.49 192.929C400.49 194.999 400.157 196.817 399.491 198.383C398.825 199.931 397.889 201.146 396.683 202.028C395.495 202.892 394.1 203.324 392.498 203.324ZM392.498 200.408C393.488 200.408 394.343 200.102 395.063 199.49C395.783 198.878 396.341 198.014 396.737 196.898C397.133 195.782 397.331 194.459 397.331 192.929C397.331 191.399 397.133 190.076 396.737 188.96C396.341 187.844 395.783 186.98 395.063 186.368C394.343 185.756 393.479 185.45 392.471 185.45C391.481 185.45 390.626 185.756 389.906 186.368C389.186 186.98 388.628 187.844 388.232 188.96C387.836 190.076 387.638 191.399 387.638 192.929C387.638 194.441 387.836 195.764 388.232 196.898C388.628 198.014 389.186 198.878 389.906 199.49C390.644 200.102 391.508 200.408 392.498 200.408ZM411.825 203.324C410.223 203.324 408.819 202.892 407.613 202.028C406.407 201.146 405.462 199.931 404.778 198.383C404.112 196.817 403.779 194.999 403.779 192.929C403.779 190.841 404.112 189.023 404.778 187.475C405.462 185.927 406.398 184.721 407.586 183.857C408.792 182.993 410.196 182.561 411.798 182.561C413.4 182.561 414.795 182.993 415.983 183.857C417.189 184.721 418.125 185.936 418.791 187.502C419.475 189.05 419.817 190.859 419.817 192.929C419.817 194.999 419.484 196.817 418.818 198.383C418.152 199.931 417.216 201.146 416.01 202.028C414.822 202.892 413.427 203.324 411.825 203.324ZM411.825 200.408C412.815 200.408 413.67 200.102 414.39 199.49C415.11 198.878 415.668 198.014 416.064 196.898C416.46 195.782 416.658 194.459 416.658 192.929C416.658 191.399 416.46 190.076 416.064 188.96C415.668 187.844 415.11 186.98 414.39 186.368C413.67 185.756 412.806 185.45 411.798 185.45C410.808 185.45 409.953 185.756 409.233 186.368C408.513 186.98 407.955 187.844 407.559 188.96C407.163 190.076 406.965 191.399 406.965 192.929C406.965 194.441 407.163 195.764 407.559 196.898C407.955 198.014 408.513 198.878 409.233 199.49C409.971 200.102 410.835 200.408 411.825 200.408ZM424.591 203V199.49H427.696V203H424.591ZM440.512 203.324C438.91 203.324 437.506 202.892 436.3 202.028C435.094 201.146 434.149 199.931 433.465 198.383C432.799 196.817 432.466 194.999 432.466 192.929C432.466 190.841 432.799 189.023 433.465 187.475C434.149 185.927 435.085 184.721 436.273 183.857C437.479 182.993 438.883 182.561 440.485 182.561C442.087 182.561 443.482 182.993 444.67 183.857C445.876 184.721 446.812 185.936 447.478 187.502C448.162 189.05 448.504 190.859 448.504 192.929C448.504 194.999 448.171 196.817 447.505 198.383C446.839 199.931 445.903 201.146 444.697 202.028C443.509 202.892 442.114 203.324 440.512 203.324ZM440.512 200.408C441.502 200.408 442.357 200.102 443.077 199.49C443.797 198.878 444.355 198.014 444.751 196.898C445.147 195.782 445.345 194.459 445.345 192.929C445.345 191.399 445.147 190.076 444.751 188.96C444.355 187.844 443.797 186.98 443.077 186.368C442.357 185.756 441.493 185.45 440.485 185.45C439.495 185.45 438.64 185.756 437.92 186.368C437.2 186.98 436.642 187.844 436.246 188.96C435.85 190.076 435.652 191.399 435.652 192.929C435.652 194.441 435.85 195.764 436.246 196.898C436.642 198.014 437.2 198.878 437.92 199.49C438.658 200.102 439.522 200.408 440.512 200.408ZM459.839 203.324C458.237 203.324 456.833 202.892 455.627 202.028C454.421 201.146 453.476 199.931 452.792 198.383C452.126 196.817 451.793 194.999 451.793 192.929C451.793 190.841 452.126 189.023 452.792 187.475C453.476 185.927 454.412 184.721 455.6 183.857C456.806 182.993 458.21 182.561 459.812 182.561C461.414 182.561 462.809 182.993 463.997 183.857C465.203 184.721 466.139 185.936 466.805 187.502C467.489 189.05 467.831 190.859 467.831 192.929C467.831 194.999 467.498 196.817 466.832 198.383C466.166 199.931 465.23 201.146 464.024 202.028C462.836 202.892 461.441 203.324 459.839 203.324ZM459.839 200.408C460.829 200.408 461.684 200.102 462.404 199.49C463.124 198.878 463.682 198.014 464.078 196.898C464.474 195.782 464.672 194.459 464.672 192.929C464.672 191.399 464.474 190.076 464.078 188.96C463.682 187.844 463.124 186.98 462.404 186.368C461.684 185.756 460.82 185.45 459.812 185.45C458.822 185.45 457.967 185.756 457.247 186.368C456.527 186.98 455.969 187.844 455.573 188.96C455.177 190.076 454.979 191.399 454.979 192.929C454.979 194.441 455.177 195.764 455.573 196.898C455.969 198.014 456.527 198.878 457.247 199.49C457.985 200.102 458.849 200.408 459.839 200.408Z" fill="#303030"/>
<path d="M322.022 231V221.2H323.534V231H322.022ZM325.619 231V224.098H327.033V225.134H327.257C327.387 224.854 327.621 224.593 327.957 224.35C328.293 224.107 328.792 223.986 329.455 223.986C329.977 223.986 330.439 224.103 330.841 224.336C331.251 224.569 331.573 224.901 331.807 225.33C332.04 225.75 332.157 226.259 332.157 226.856V231H330.715V226.968C330.715 226.371 330.565 225.932 330.267 225.652C329.968 225.363 329.557 225.218 329.035 225.218C328.437 225.218 327.957 225.414 327.593 225.806C327.238 226.198 327.061 226.767 327.061 227.514V231H325.619ZM335.623 231L333.299 224.098H334.825L336.659 229.936H336.883L338.717 224.098H340.243L337.919 231H335.623ZM344.574 231.196C343.874 231.196 343.262 231.051 342.74 230.762C342.217 230.463 341.806 230.048 341.508 229.516C341.218 228.975 341.074 228.349 341.074 227.64V227.472C341.074 226.753 341.218 226.128 341.508 225.596C341.797 225.055 342.198 224.639 342.712 224.35C343.234 224.051 343.836 223.902 344.518 223.902C345.18 223.902 345.759 224.051 346.254 224.35C346.758 224.639 347.15 225.045 347.43 225.568C347.71 226.091 347.85 226.702 347.85 227.402V227.948H342.544C342.562 228.555 342.763 229.04 343.146 229.404C343.538 229.759 344.023 229.936 344.602 229.936C345.143 229.936 345.549 229.815 345.82 229.572C346.1 229.329 346.314 229.049 346.464 228.732L347.654 229.348C347.523 229.609 347.332 229.885 347.08 230.174C346.837 230.463 346.515 230.706 346.114 230.902C345.712 231.098 345.199 231.196 344.574 231.196ZM342.558 226.842H346.38C346.342 226.319 346.156 225.913 345.82 225.624C345.484 225.325 345.045 225.176 344.504 225.176C343.962 225.176 343.519 225.325 343.174 225.624C342.838 225.913 342.632 226.319 342.558 226.842ZM352.413 231.196C351.536 231.196 350.808 231 350.229 230.608C349.651 230.216 349.296 229.623 349.165 228.83L350.509 228.508C350.584 228.891 350.71 229.194 350.887 229.418C351.065 229.642 351.284 229.801 351.545 229.894C351.816 229.987 352.105 230.034 352.413 230.034C352.871 230.034 353.221 229.945 353.463 229.768C353.715 229.591 353.841 229.362 353.841 229.082C353.841 228.802 353.725 228.597 353.491 228.466C353.258 228.335 352.913 228.228 352.455 228.144L351.979 228.06C351.513 227.976 351.088 227.855 350.705 227.696C350.323 227.537 350.019 227.318 349.795 227.038C349.571 226.758 349.459 226.399 349.459 225.96C349.459 225.307 349.702 224.803 350.187 224.448C350.673 224.084 351.317 223.902 352.119 223.902C352.894 223.902 353.529 224.079 354.023 224.434C354.527 224.779 354.854 225.251 355.003 225.848L353.659 226.226C353.575 225.806 353.398 225.512 353.127 225.344C352.857 225.167 352.521 225.078 352.119 225.078C351.727 225.078 351.419 225.153 351.195 225.302C350.971 225.442 350.859 225.643 350.859 225.904C350.859 226.184 350.967 226.389 351.181 226.52C351.405 226.651 351.704 226.749 352.077 226.814L352.567 226.898C353.062 226.982 353.515 227.099 353.925 227.248C354.336 227.397 354.658 227.612 354.891 227.892C355.134 228.172 355.255 228.545 355.255 229.012C355.255 229.703 354.999 230.239 354.485 230.622C353.972 231.005 353.281 231.196 352.413 231.196ZM359.381 231C358.961 231 358.625 230.874 358.373 230.622C358.13 230.37 358.009 230.034 358.009 229.614V225.316H356.105V224.098H358.009V221.816H359.451V224.098H361.509V225.316H359.451V229.362C359.451 229.642 359.581 229.782 359.843 229.782H361.285V231H359.381ZM363.203 231V224.098H364.617V224.91H364.841C364.971 224.667 365.181 224.453 365.471 224.266C365.76 224.079 366.152 223.986 366.647 223.986C367.16 223.986 367.571 224.093 367.879 224.308C368.196 224.513 368.434 224.779 368.593 225.106H368.817C368.975 224.789 369.204 224.523 369.503 224.308C369.811 224.093 370.245 223.986 370.805 223.986C371.253 223.986 371.649 224.079 371.995 224.266C372.34 224.443 372.615 224.714 372.821 225.078C373.026 225.433 373.129 225.876 373.129 226.408V231H371.687V226.52C371.687 226.1 371.57 225.778 371.337 225.554C371.113 225.321 370.791 225.204 370.371 225.204C369.923 225.204 369.563 225.349 369.293 225.638C369.022 225.927 368.887 226.343 368.887 226.884V231H367.445V226.52C367.445 226.1 367.328 225.778 367.095 225.554C366.871 225.321 366.549 225.204 366.129 225.204C365.681 225.204 365.321 225.349 365.051 225.638C364.78 225.927 364.645 226.343 364.645 226.884V231H363.203ZM378.371 231.196C377.671 231.196 377.059 231.051 376.537 230.762C376.014 230.463 375.603 230.048 375.305 229.516C375.015 228.975 374.871 228.349 374.871 227.64V227.472C374.871 226.753 375.015 226.128 375.305 225.596C375.594 225.055 375.995 224.639 376.509 224.35C377.031 224.051 377.633 223.902 378.315 223.902C378.977 223.902 379.556 224.051 380.051 224.35C380.555 224.639 380.947 225.045 381.227 225.568C381.507 226.091 381.647 226.702 381.647 227.402V227.948H376.341C376.359 228.555 376.56 229.04 376.943 229.404C377.335 229.759 377.82 229.936 378.399 229.936C378.94 229.936 379.346 229.815 379.617 229.572C379.897 229.329 380.111 229.049 380.261 228.732L381.451 229.348C381.32 229.609 381.129 229.885 380.877 230.174C380.634 230.463 380.312 230.706 379.911 230.902C379.509 231.098 378.996 231.196 378.371 231.196ZM376.355 226.842H380.177C380.139 226.319 379.953 225.913 379.617 225.624C379.281 225.325 378.842 225.176 378.301 225.176C377.759 225.176 377.316 225.325 376.971 225.624C376.635 225.913 376.429 226.319 376.355 226.842ZM383.382 231V224.098H384.796V225.134H385.02C385.151 224.854 385.384 224.593 385.72 224.35C386.056 224.107 386.556 223.986 387.218 223.986C387.741 223.986 388.203 224.103 388.604 224.336C389.015 224.569 389.337 224.901 389.57 225.33C389.804 225.75 389.92 226.259 389.92 226.856V231H388.478V226.968C388.478 226.371 388.329 225.932 388.03 225.652C387.732 225.363 387.321 225.218 386.798 225.218C386.201 225.218 385.72 225.414 385.356 225.806C385.002 226.198 384.824 226.767 384.824 227.514V231H383.382ZM394.394 231C393.974 231 393.638 230.874 393.386 230.622C393.144 230.37 393.022 230.034 393.022 229.614V225.316H391.118V224.098H393.022V221.816H394.464V224.098H396.522V225.316H394.464V229.362C394.464 229.642 394.595 229.782 394.856 229.782H396.298V231H394.394Z" fill="#303030" fill-opacity="0.5"/>
</g>
</g>
<path d="M451.5 330V322.5H450.5V330H451.5ZM451.5 307.5V292.5H450.5V307.5H451.5ZM451.5 277.5V262.5H450.5V277.5H451.5ZM451.5 247.5V232.5H450.5V247.5H451.5ZM451.5 217.5V202.5H450.5V217.5H451.5ZM451.5 187.5V172.5H450.5V187.5H451.5ZM451.5 157.5V142.5H450.5V157.5H451.5ZM451.5 127.5V112.5H450.5V127.5H451.5ZM451.5 97.5V82.5H450.5V97.5H451.5ZM451.5 67.5V52.5H450.5V67.5H451.5ZM451.5 37.5V22.5H450.5V37.5H451.5ZM451.5 7.49999V0H450.5V7.49999H451.5ZM452 330V322.5H450V330H452ZM452 307.5V292.5H450V307.5H452ZM452 277.5V262.5H450V277.5H452ZM452 247.5V232.5H450V247.5H452ZM452 217.5V202.5H450V217.5H452ZM452 187.5V172.5H450V187.5H452ZM452 157.5V142.5H450V157.5H452ZM452 127.5V112.5H450V127.5H452ZM452 97.5V82.5H450V97.5H452ZM452 67.5V52.5H450V67.5H452ZM452 37.5V22.5H450V37.5H452ZM452 7.49999V0H450V7.49999H452Z" fill="#FF7C24" mask="url(#path-1-inside-1_56_11784)"/>
<defs>
<filter id="filter0_d_56_11784" x="-54" y="21" width="389" height="296" filterUnits="userSpaceOnUse" color-interpolation-filters="sRGB">
<feFlood flood-opacity="0" result="BackgroundImageFix"/>
<feColorMatrix in="SourceAlpha" type="matrix" values="0 0 0 0 0 0 0 0 0 0 0 0 0 0 0 0 0 0 127 0" result="hardAlpha"/>
<feOffset dy="4"/>
<feGaussianBlur stdDeviation="27"/>
<feComposite in2="hardAlpha" operator="out"/>
<feColorMatrix type="matrix" values="0 0 0 0 0 0 0 0 0 0 0 0 0 0 0 0 0 0 0.03 0"/>
<feBlend mode="normal" in2="BackgroundImageFix" result="effect1_dropShadow_56_11784"/>
<feBlend mode="normal" in="SourceGraphic" in2="effect1_dropShadow_56_11784" result="shape"/>
</filter>
<filter id="filter1_d_56_11784" x="243" y="21" width="389" height="296" filterUnits="userSpaceOnUse" color-interpolation-filters="sRGB">
<feFlood flood-opacity="0" result="BackgroundImageFix"/>
<feColorMatrix in="SourceAlpha" type="matrix" values="0 0 0 0 0 0 0 0 0 0 0 0 0 0 0 0 0 0 127 0" result="hardAlpha"/>
<feOffset dy="4"/>
<feGaussianBlur stdDeviation="27"/>
<feComposite in2="hardAlpha" operator="out"/>
<feColorMatrix type="matrix" values="0 0 0 0 0 0 0 0 0 0 0 0 0 0 0 0 0 0 0.03 0"/>
<feBlend mode="normal" in2="BackgroundImageFix" result="effect1_dropShadow_56_11784"/>
<feBlend mode="normal" in="SourceGraphic" in2="effect1_dropShadow_56_11784" result="shape"/>
</filter>
<clipPath id="clip0_56_11784">
<path d="M0 0H451V330H0V0Z" fill="white"/>
</clipPath>
</defs>
</svg>
