<svg width="1149" height="33" viewBox="0 0 1149 33" fill="none" xmlns="http://www.w3.org/2000/svg">
<circle cx="16.5" cy="16.5" r="16.5" fill="#FF7C24"/>
<path d="M13.486 12.722V9.86H18.472V23H15.268V12.722H13.486Z" fill="white"/>
<circle cx="574.5" cy="16.5" r="16.5" fill="#FF7C24"/>
<path d="M569.702 20.534C570.11 20.21 570.296 20.06 570.26 20.084C571.436 19.112 572.36 18.314 573.032 17.69C573.716 17.066 574.292 16.412 574.76 15.728C575.228 15.044 575.462 14.378 575.462 13.73C575.462 13.238 575.348 12.854 575.12 12.578C574.892 12.302 574.55 12.164 574.094 12.164C573.638 12.164 573.278 12.338 573.014 12.686C572.762 13.022 572.636 13.502 572.636 14.126H569.666C569.69 13.106 569.906 12.254 570.314 11.57C570.734 10.886 571.28 10.382 571.952 10.058C572.636 9.734 573.392 9.572 574.22 9.572C575.648 9.572 576.722 9.938 577.442 10.67C578.174 11.402 578.54 12.356 578.54 13.532C578.54 14.816 578.102 16.01 577.226 17.114C576.35 18.206 575.234 19.274 573.878 20.318H578.738V22.82H569.702V20.534Z" fill="white"/>
<circle cx="1132.5" cy="16.5" r="16.5" fill="#FF7C24"/>
<path d="M1127.92 13.568C1127.97 12.284 1128.39 11.294 1129.18 10.598C1129.97 9.902 1131.04 9.554 1132.4 9.554C1133.3 9.554 1134.07 9.71 1134.7 10.022C1135.35 10.334 1135.84 10.76 1136.16 11.3C1136.5 11.84 1136.67 12.446 1136.67 13.118C1136.67 13.91 1136.47 14.558 1136.07 15.062C1135.68 15.554 1135.21 15.89 1134.69 16.07V16.142C1135.37 16.37 1135.91 16.748 1136.31 17.276C1136.7 17.804 1136.9 18.482 1136.9 19.31C1136.9 20.054 1136.73 20.714 1136.38 21.29C1136.04 21.854 1135.54 22.298 1134.88 22.622C1134.24 22.946 1133.46 23.108 1132.56 23.108C1131.12 23.108 1129.97 22.754 1129.11 22.046C1128.25 21.338 1127.8 20.27 1127.76 18.842H1130.74C1130.76 19.37 1130.91 19.79 1131.19 20.102C1131.48 20.402 1131.9 20.552 1132.45 20.552C1132.92 20.552 1133.28 20.42 1133.53 20.156C1133.8 19.88 1133.93 19.52 1133.93 19.076C1133.93 18.5 1133.74 18.086 1133.37 17.834C1133.01 17.57 1132.43 17.438 1131.63 17.438H1131.05V14.936H1131.63C1132.24 14.936 1132.73 14.834 1133.1 14.63C1133.49 14.414 1133.68 14.036 1133.68 13.496C1133.68 13.064 1133.56 12.728 1133.32 12.488C1133.08 12.248 1132.75 12.128 1132.33 12.128C1131.87 12.128 1131.53 12.266 1131.3 12.542C1131.09 12.818 1130.96 13.16 1130.92 13.568H1127.92Z" fill="white"/>
<path d="M56 16H536" stroke="#FF7C24" stroke-width="2"/>
<path d="M615 16H1095" stroke="#FF7C24" stroke-width="2"/>
</svg>
