<svg width="50" height="50" viewBox="0 0 50 50" fill="none" xmlns="http://www.w3.org/2000/svg">
<circle cx="25" cy="25" r="25" fill="#55ACEE"/>
<path d="M37 19.1919C36.1537 19.5516 35.2443 19.7947 34.2898 19.9041C35.2641 19.3443 36.0123 18.4578 36.3645 17.4016C35.4383 17.9285 34.4249 18.2997 33.3682 18.4993C32.5074 17.6202 31.2811 17.0708 29.9238 17.0708C27.3178 17.0708 25.205 19.0961 25.205 21.5941C25.205 21.9486 25.2467 22.2938 25.3271 22.625C21.4055 22.4363 17.9285 20.6355 15.6011 17.8988C15.195 18.5669 14.9623 19.344 14.9623 20.1728C14.9623 21.7422 15.7954 23.1266 17.0615 23.9378C16.3122 23.9153 15.5793 23.7213 14.9241 23.372C14.9239 23.391 14.9239 23.4099 14.9239 23.4289C14.9239 25.6205 16.5504 27.4488 18.709 27.8643C18.0141 28.0455 17.2853 28.072 16.5781 27.9418C17.1785 29.7389 18.9212 31.0466 20.986 31.0832C19.371 32.2964 17.3363 33.0196 15.1257 33.0196C14.7447 33.0196 14.3692 32.9981 14 32.9564C16.0882 34.2398 18.5686 34.9886 21.2333 34.9886C29.9129 34.9886 34.659 28.096 34.659 22.1186C34.659 21.9224 34.6545 21.7274 34.6454 21.5334C35.5692 20.8932 36.3665 20.1003 37 19.1919Z" fill="white"/>
</svg>
