<svg width="196" height="60" viewBox="0 0 196 60" fill="none" xmlns="http://www.w3.org/2000/svg">
<rect width="196" height="60" rx="30" fill="#55ACEE"/>
<path d="M93.4956 23.1V24.96H89.7956V37H87.5156V24.96H83.7956V23.1H93.4956ZM110.605 25.98L107.185 37H104.785L102.565 28.86L100.345 37H97.9447L94.5047 25.98H96.8247L99.1247 34.84L101.465 25.98H103.845L106.085 34.8L108.365 25.98H110.605ZM113.469 24.52C113.055 24.52 112.709 24.38 112.429 24.1C112.149 23.82 112.009 23.4733 112.009 23.06C112.009 22.6467 112.149 22.3 112.429 22.02C112.709 21.74 113.055 21.6 113.469 21.6C113.869 21.6 114.209 21.74 114.489 22.02C114.769 22.3 114.909 22.6467 114.909 23.06C114.909 23.4733 114.769 23.82 114.489 24.1C114.209 24.38 113.869 24.52 113.469 24.52ZM114.589 25.98V37H112.309V25.98H114.589ZM120.242 27.84V33.94C120.242 34.3533 120.335 34.6533 120.522 34.84C120.722 35.0133 121.055 35.1 121.522 35.1H122.922V37H121.122C120.095 37 119.309 36.76 118.762 36.28C118.215 35.8 117.942 35.02 117.942 33.94V27.84H116.642V25.98H117.942V23.24H120.242V25.98H122.922V27.84H120.242ZM127.683 27.84V33.94C127.683 34.3533 127.777 34.6533 127.963 34.84C128.163 35.0133 128.497 35.1 128.963 35.1H130.363V37H128.563C127.537 37 126.75 36.76 126.203 36.28C125.657 35.8 125.383 35.02 125.383 33.94V27.84H124.083V25.98H125.383V23.24H127.683V25.98H130.363V27.84H127.683ZM142.565 31.22C142.565 31.6333 142.538 32.0067 142.485 32.34H134.065C134.132 33.22 134.458 33.9267 135.045 34.46C135.632 34.9933 136.352 35.26 137.205 35.26C138.432 35.26 139.298 34.7467 139.805 33.72H142.265C141.932 34.7333 141.325 35.5667 140.445 36.22C139.578 36.86 138.498 37.18 137.205 37.18C136.152 37.18 135.205 36.9467 134.365 36.48C133.538 36 132.885 35.3333 132.405 34.48C131.938 33.6133 131.705 32.6133 131.705 31.48C131.705 30.3467 131.932 29.3533 132.385 28.5C132.852 27.6333 133.498 26.9667 134.325 26.5C135.165 26.0333 136.125 25.8 137.205 25.8C138.245 25.8 139.172 26.0267 139.985 26.48C140.798 26.9333 141.432 27.5733 141.885 28.4C142.338 29.2133 142.565 30.1533 142.565 31.22ZM140.185 30.5C140.172 29.66 139.872 28.9867 139.285 28.48C138.698 27.9733 137.972 27.72 137.105 27.72C136.318 27.72 135.645 27.9733 135.085 28.48C134.525 28.9733 134.192 29.6467 134.085 30.5H140.185ZM147.089 27.58C147.422 27.02 147.862 26.5867 148.409 26.28C148.969 25.96 149.629 25.8 150.389 25.8V28.16H149.809C148.915 28.16 148.235 28.3867 147.769 28.84C147.315 29.2933 147.089 30.08 147.089 31.2V37H144.809V25.98H147.089V27.58Z" fill="white"/>
<path d="M69 24.1919C68.1537 24.5516 67.2443 24.7947 66.2898 24.9041C67.2641 24.3443 68.0123 23.4578 68.3645 22.4016C67.4383 22.9285 66.4249 23.2997 65.3682 23.4993C64.5074 22.6202 63.2811 22.0708 61.9238 22.0708C59.3178 22.0708 57.205 24.0961 57.205 26.5941C57.205 26.9486 57.2467 27.2938 57.3271 27.625C53.4055 27.4363 49.9285 25.6355 47.6011 22.8988C47.195 23.5669 46.9623 24.344 46.9623 25.1728C46.9623 26.7422 47.7954 28.1266 49.0615 28.9378C48.3122 28.9153 47.5793 28.7213 46.9241 28.372C46.9239 28.391 46.9239 28.4099 46.9239 28.4289C46.9239 30.6205 48.5504 32.4488 50.709 32.8643C50.0141 33.0455 49.2853 33.072 48.5781 32.9418C49.1785 34.7389 50.9212 36.0466 52.986 36.0832C51.371 37.2964 49.3363 38.0196 47.1257 38.0196C46.7447 38.0196 46.3692 37.9981 46 37.9564C48.0882 39.2398 50.5686 39.9886 53.2333 39.9886C61.9129 39.9886 66.659 33.096 66.659 27.1186C66.659 26.9224 66.6545 26.7274 66.6454 26.5334C67.5692 25.8932 68.3665 25.1003 69 24.1919Z" fill="white"/>
</svg>
